<svg width="54" height="56" viewBox="0 0 54 56" fill="none" xmlns="http://www.w3.org/2000/svg">
<path d="M8.82305 45.6637C8.65681 45.3402 8.28173 45.1588 7.92464 45.2306C7.55686 45.2994 7.27711 45.6303 7.25968 46.0018C7.24247 46.3694 7.4769 46.7135 7.82692 46.8284C8.51682 47.0547 9.15476 46.3098 8.82305 45.6637Z" fill="#3D0606" fill-opacity="0.6"/>
<path d="M9.22649 49.5231C8.87648 49.7332 8.73551 50.1729 8.8865 50.5497C9.02169 50.8772 9.36637 51.0896 9.72053 51.0592C10.0479 51.0313 10.3356 50.8049 10.438 50.4929C10.6718 49.7808 9.8713 49.1359 9.22649 49.5231Z" fill="#3D0606" fill-opacity="0.6"/>
<path d="M14.8684 49.4684C14.5324 49.3267 14.1256 49.4335 13.9012 49.7206C13.6896 49.9912 13.6666 50.3726 13.8459 50.6659C14.0322 50.9706 14.4068 51.1241 14.7533 51.0365C15.0737 50.9555 15.3233 50.6828 15.3709 50.355C15.4252 49.9815 15.2147 49.615 14.8684 49.4684Z" fill="#3D0606" fill-opacity="0.6"/>
<path d="M43.1263 49.4538C42.7463 49.589 42.5106 49.9988 42.5931 50.3951C42.6666 50.7491 42.9628 51.0204 43.3239 51.0581C43.6583 51.0931 43.9915 50.9082 44.1431 50.6093C44.4755 49.9535 43.817 49.208 43.1263 49.4538Z" fill="#3D0606" fill-opacity="0.6"/>
<path d="M30.4715 26.5755C30.2045 26.249 29.7216 26.1815 29.3713 26.4124C28.7507 26.8209 28.9781 27.8128 29.7096 27.9205C30.4452 28.0289 30.9402 27.1489 30.4715 26.5755Z" fill="#3D0606" fill-opacity="0.6"/>
<path d="M22.4599 41.2995C22.1929 40.973 21.71 40.9055 21.3597 41.1364C20.7391 41.5449 20.9665 42.5368 21.698 42.6444C22.4336 42.7528 22.9287 41.8728 22.4599 41.2995Z" fill="#3D0606" fill-opacity="0.6"/>
<path d="M26.584 25.7132C26.4135 25.3972 26.0457 25.2251 25.6935 25.2947C25.3592 25.3609 25.0957 25.6352 25.0391 25.9701C24.9755 26.3457 25.1871 26.7265 25.5389 26.8718C25.877 27.0145 26.2852 26.9047 26.5094 26.6155C26.7089 26.3581 26.7387 25.9997 26.584 25.7132Z" fill="#3D0606" fill-opacity="0.6"/>
<path d="M21.5562 46.4338C21.3857 46.1179 21.0178 45.9457 20.6656 46.0153C20.3314 46.0815 20.0679 46.3558 20.0112 46.6908C19.9476 47.0663 20.1593 47.4471 20.5111 47.5924C20.8492 47.7351 21.2574 47.6253 21.4816 47.3361C21.681 47.0787 21.7109 46.7203 21.5562 46.4338Z" fill="#3D0606" fill-opacity="0.6"/>
<path d="M25.5562 43.4338C25.3857 43.1179 25.0178 42.9457 24.6656 43.0153C24.3314 43.0815 24.0679 43.3558 24.0112 43.6908C23.9476 44.0663 24.1593 44.4471 24.5111 44.5924C24.8492 44.7351 25.2574 44.6253 25.4816 44.3361C25.681 44.0787 25.7109 43.7203 25.5562 43.4338Z" fill="#3D0606" fill-opacity="0.6"/>
<path d="M26.5562 47.4338C26.3857 47.1179 26.0178 46.9457 25.6656 47.0153C25.3314 47.0815 25.0679 47.3558 25.0112 47.6908C24.9476 48.0663 25.1593 48.4471 25.5111 48.5924C25.8492 48.7351 26.2574 48.6253 26.4816 48.3361C26.681 48.0787 26.7109 47.7203 26.5562 47.4338Z" fill="#3D0606" fill-opacity="0.6"/>
<path d="M30.5562 43.4338C30.3857 43.1179 30.0178 42.9457 29.6656 43.0153C29.3314 43.0815 29.0679 43.3558 29.0112 43.6908C28.9476 44.0663 29.1593 44.4471 29.5111 44.5924C29.8492 44.7351 30.2574 44.6253 30.4816 44.3361C30.681 44.0787 30.7109 43.7203 30.5562 43.4338Z" fill="#3D0606" fill-opacity="0.6"/>
<path d="M33.5562 38.4338C33.3857 38.1179 33.0178 37.9457 32.6656 38.0153C32.3314 38.0815 32.0679 38.3558 32.0112 38.6908C31.9476 39.0663 32.1593 39.4471 32.5111 39.5924C32.8492 39.7351 33.2574 39.6253 33.4816 39.3361C33.681 39.0787 33.7109 38.7203 33.5562 38.4338Z" fill="#3D0606" fill-opacity="0.6"/>
<path d="M35.5562 45.4338C35.3857 45.1179 35.0178 44.9457 34.6656 45.0153C34.3314 45.0815 34.0679 45.3558 34.0112 45.6908C33.9476 46.0663 34.1593 46.4471 34.5111 46.5924C34.8492 46.7351 35.2574 46.6253 35.4816 46.3361C35.681 46.0787 35.7109 45.7203 35.5562 45.4338Z" fill="#3D0606" fill-opacity="0.6"/>
<path d="M39.5562 47.4338C39.3857 47.1179 39.0178 46.9457 38.6656 47.0153C38.3314 47.0815 38.0679 47.3558 38.0112 47.6908C37.9476 48.0663 38.1593 48.4471 38.5111 48.5924C38.8492 48.7351 39.2574 48.6253 39.4816 48.3361C39.681 48.0787 39.7109 47.7203 39.5562 47.4338Z" fill="#3D0606" fill-opacity="0.6"/>
<path d="M31.5562 47.4338C31.3857 47.1179 31.0178 46.9457 30.6656 47.0153C30.3314 47.0815 30.0679 47.3558 30.0112 47.6908C29.9476 48.0663 30.1593 48.4471 30.5111 48.5924C30.8492 48.7351 31.2574 48.6253 31.4816 48.3361C31.681 48.0787 31.7109 47.7203 31.5562 47.4338Z" fill="#3D0606" fill-opacity="0.6"/>
<path d="M17.5562 46.4338C17.3857 46.1179 17.0178 45.9457 16.6656 46.0153C16.3314 46.0815 16.0679 46.3558 16.0112 46.6908C15.9476 47.0663 16.1593 47.4471 16.5111 47.5924C16.8492 47.7351 17.2574 47.6253 17.4816 47.3361C17.681 47.0787 17.7109 46.7203 17.5562 46.4338Z" fill="#3D0606" fill-opacity="0.6"/>
<path d="M12.5562 42.4338C12.3857 42.1179 12.0178 41.9457 11.6656 42.0153C11.3314 42.0815 11.0679 42.3558 11.0112 42.6908C10.9476 43.0663 11.1593 43.4471 11.5111 43.5924C11.8492 43.7351 12.2574 43.6253 12.4816 43.3361C12.681 43.0787 12.7109 42.7203 12.5562 42.4338Z" fill="#3D0606" fill-opacity="0.6"/>
<path d="M17.5562 42.4338C17.3857 42.1179 17.0178 41.9457 16.6656 42.0153C16.3314 42.0815 16.0679 42.3558 16.0112 42.6908C15.9476 43.0663 16.1593 43.4471 16.5111 43.5924C16.8492 43.7351 17.2574 43.6253 17.4816 43.3361C17.681 43.0787 17.7109 42.7203 17.5562 42.4338Z" fill="#3D0606" fill-opacity="0.6"/>
<path d="M45.7065 5.80836C45.3832 6.02373 45.2501 6.45546 45.4017 6.81452C45.533 7.12586 45.8464 7.33404 46.1863 7.32543C46.5325 7.31661 46.8436 7.08599 46.9524 6.75732C47.1948 6.02537 46.3483 5.38089 45.7065 5.80836Z" fill="#3D0606" fill-opacity="0.6"/>
<path d="M46.7525 9.58675C46.5304 9.36376 46.1838 9.28598 45.8878 9.39295C45.508 9.53021 45.2728 9.93612 45.3542 10.3345C45.5074 11.0574 46.493 11.2366 46.8767 10.5977C47.0699 10.2762 47.0169 9.85213 46.7525 9.58675Z" fill="#3D0606" fill-opacity="0.6"/>
<path d="M47.5162 13.2181C47.2025 13.4868 47.1339 13.9638 47.3656 14.3074C47.773 14.9256 48.7659 14.7017 48.8736 13.9697C48.9828 13.2282 48.0857 12.7306 47.5162 13.2181Z" fill="#3D0606" fill-opacity="0.6"/>
<path d="M29.6022 22.6428C29.4615 22.3097 29.1177 22.1001 28.7563 22.1351C28.4111 22.1685 28.1196 22.4227 28.0342 22.7579C27.852 23.4729 28.6653 24.0486 29.2837 23.6566C29.6163 23.4456 29.7558 23.0066 29.6022 22.6428Z" fill="#3D0606" fill-opacity="0.6"/>
<path d="M41.7996 10.7011C41.3969 10.6805 41.0222 10.9695 40.9474 11.3672C40.7923 12.1144 41.6994 12.6501 42.2844 12.1686C42.8569 11.6972 42.5393 10.7389 41.7996 10.7011Z" fill="#3D0606" fill-opacity="0.6"/>
<path d="M41.3412 6.68408C41.0245 6.95327 40.9631 7.42933 41.1904 7.77433C41.3925 8.08143 41.7914 8.21499 42.139 8.10027C42.4516 7.997 42.6774 7.71049 42.7051 7.38259C42.7659 6.66251 41.8928 6.21499 41.3412 6.68408Z" fill="#3D0606" fill-opacity="0.6"/>
<path d="M42.7767 39.137C42.4534 39.3523 42.3203 39.7841 42.4719 40.1431C42.6032 40.4545 42.9166 40.6627 43.2565 40.654C43.6027 40.6452 43.9138 40.4146 44.0226 40.0859C44.265 39.354 43.4185 38.7095 42.7767 39.137Z" fill="#3D0606" fill-opacity="0.6"/>
<path d="M43.8227 42.9154C43.6006 42.6924 43.254 42.6146 42.958 42.7216C42.5782 42.8588 42.343 43.2647 42.4244 43.6631C42.5776 44.386 43.5632 44.5652 43.9469 43.9263C44.1401 43.6048 44.0871 43.1807 43.8227 42.9154Z" fill="#3D0606" fill-opacity="0.6"/>
<path d="M44.5864 46.5467C44.2727 46.8155 44.2041 47.2924 44.4358 47.636C44.8432 48.2542 45.8361 48.0303 45.9438 47.2983C46.0529 46.5568 45.1558 46.0592 44.5864 46.5467Z" fill="#3D0606" fill-opacity="0.6"/>
<path d="M38.8698 44.0297C38.4671 44.0091 38.0924 44.2981 38.0176 44.6958C37.8625 45.4431 38.7696 45.9787 39.3545 45.4972C39.9271 45.0258 39.6095 44.0675 38.8698 44.0297Z" fill="#3D0606" fill-opacity="0.6"/>
<path d="M38.4114 40.0127C38.0947 40.2819 38.0333 40.7579 38.2606 41.1029C38.4627 41.41 38.8616 41.5436 39.2091 41.4289C39.5218 41.3256 39.7476 41.0391 39.7753 40.7112C39.8361 39.9911 38.9629 39.5436 38.4114 40.0127Z" fill="#3D0606" fill-opacity="0.6"/>
<path d="M12.2464 47.1193C12.0703 46.8613 11.7577 46.7163 11.4466 46.7587C11.0761 46.809 10.7827 47.1088 10.7357 47.4784C10.6432 48.2057 11.5148 48.6799 12.079 48.2226C12.4074 47.9563 12.4785 47.4717 12.2464 47.1193Z" fill="#3D0606" fill-opacity="0.6"/>
<path d="M7.56426 9.44874C7.39802 9.12519 7.02294 8.94381 6.66585 9.0156C6.29807 9.08445 6.01832 9.41529 6.00089 9.78677C5.98368 10.1544 6.21811 10.4985 6.56813 10.6134C7.25803 10.8397 7.89597 10.0948 7.56426 9.44874Z" fill="#3D0606" fill-opacity="0.6"/>
<path d="M7.96771 13.3081C7.61769 13.5182 7.47672 13.9579 7.62771 14.3347C7.7629 14.6622 8.10758 14.8746 8.46174 14.8442C8.7891 14.8163 9.0768 14.5899 9.1792 14.2779C9.41299 13.5658 8.61251 12.9209 7.96771 13.3081Z" fill="#3D0606" fill-opacity="0.6"/>
<path d="M10.4001 16.1163C10.0501 16.3265 9.90909 16.7661 10.0601 17.143C10.1953 17.4704 10.54 17.6828 10.8941 17.6525C11.2215 17.6246 11.5092 17.3981 11.6116 17.0861C11.8454 16.3741 11.0449 15.7292 10.4001 16.1163Z" fill="#3D0606" fill-opacity="0.6"/>
<path d="M15.4001 16.1163C15.0501 16.3265 14.9091 16.7661 15.0601 17.143C15.1953 17.4704 15.54 17.6828 15.8941 17.6525C16.2215 17.6246 16.5092 17.3981 16.6116 17.0861C16.8454 16.3741 16.0449 15.7292 15.4001 16.1163Z" fill="#3D0606" fill-opacity="0.6"/>
<path d="M13.4001 19.1163C13.0501 19.3265 12.9091 19.7661 13.0601 20.143C13.1953 20.4704 13.54 20.6828 13.8941 20.6525C14.2215 20.6246 14.5092 20.3981 14.6116 20.0861C14.8454 19.3741 14.0449 18.7292 13.4001 19.1163Z" fill="#3D0606" fill-opacity="0.6"/>
<path d="M17.4001 19.1163C17.0501 19.3265 16.9091 19.7661 17.0601 20.143C17.1953 20.4704 17.54 20.6828 17.8941 20.6525C18.2215 20.6246 18.5092 20.3981 18.6116 20.0861C18.8454 19.3741 18.0449 18.7292 17.4001 19.1163Z" fill="#3D0606" fill-opacity="0.6"/>
<path d="M21.4001 18.1163C21.0501 18.3265 20.9091 18.7661 21.0601 19.143C21.1953 19.4704 21.54 19.6828 21.8941 19.6525C22.2215 19.6246 22.5092 19.3981 22.6116 19.0861C22.8454 18.3741 22.0449 17.7292 21.4001 18.1163Z" fill="#3D0606" fill-opacity="0.6"/>
<path d="M20.4001 21.1163C20.0501 21.3265 19.9091 21.7661 20.0601 22.143C20.1953 22.4704 20.54 22.6828 20.8941 22.6525C21.2215 22.6246 21.5092 22.3981 21.6116 22.0861C21.8454 21.3741 21.0449 20.7292 20.4001 21.1163Z" fill="#3D0606" fill-opacity="0.6"/>
<path d="M24.4001 21.1163C24.0501 21.3265 23.9091 21.7661 24.0601 22.143C24.1953 22.4704 24.54 22.6828 24.8941 22.6525C25.2215 22.6246 25.5092 22.3981 25.6116 22.0861C25.8454 21.3741 25.0449 20.7292 24.4001 21.1163Z" fill="#3D0606" fill-opacity="0.6"/>
<path d="M21.4001 25.1163C21.0501 25.3265 20.9091 25.7661 21.0601 26.143C21.1953 26.4704 21.54 26.6828 21.8941 26.6525C22.2215 26.6246 22.5092 26.3981 22.6116 26.0861C22.8454 25.3741 22.0449 24.7292 21.4001 25.1163Z" fill="#3D0606" fill-opacity="0.6"/>
<path d="M17.4001 23.1163C17.0501 23.3265 16.9091 23.7661 17.0601 24.143C17.1953 24.4704 17.54 24.6828 17.8941 24.6525C18.2215 24.6246 18.5092 24.3981 18.6116 24.0861C18.8454 23.3741 18.0449 22.7292 17.4001 23.1163Z" fill="#3D0606" fill-opacity="0.6"/>
<path d="M19.4001 14.1163C19.0501 14.3265 18.9091 14.7661 19.0601 15.143C19.1953 15.4704 19.54 15.6828 19.8941 15.6525C20.2215 15.6246 20.5092 15.3981 20.6116 15.0861C20.8454 14.3741 20.0449 13.7292 19.4001 14.1163Z" fill="#3D0606" fill-opacity="0.6"/>
<path d="M25.4001 16.1163C25.0501 16.3265 24.9091 16.7661 25.0601 17.143C25.1953 17.4704 25.54 17.6828 25.8941 17.6525C26.2215 17.6246 26.5092 17.3981 26.6116 17.0861C26.8454 16.3741 26.0449 15.7292 25.4001 16.1163Z" fill="#3D0606" fill-opacity="0.6"/>
<path d="M29.4001 18.1163C29.0501 18.3265 28.9091 18.7661 29.0601 19.143C29.1953 19.4704 29.54 19.6828 29.8941 19.6525C30.2215 19.6246 30.5092 19.3981 30.6116 19.0861C30.8454 18.3741 30.0449 17.7292 29.4001 18.1163Z" fill="#3D0606" fill-opacity="0.6"/>
<path d="M23.4001 12.1163C23.0501 12.3265 22.9091 12.7661 23.0601 13.143C23.1953 13.4704 23.54 13.6828 23.8941 13.6525C24.2215 13.6246 24.5092 13.3981 24.6116 13.0861C24.8454 12.3741 24.0449 11.7292 23.4001 12.1163Z" fill="#3D0606" fill-opacity="0.6"/>
<path d="M16.4001 11.1163C16.0501 11.3265 15.9091 11.7661 16.0601 12.143C16.1953 12.4704 16.54 12.6828 16.8941 12.6525C17.2215 12.6246 17.5092 12.3981 17.6116 12.0861C17.8454 11.3741 17.0449 10.7292 16.4001 11.1163Z" fill="#3D0606" fill-opacity="0.6"/>
<path d="M19.4001 8.11632C19.0501 8.32646 18.9091 8.76614 19.0601 9.14295C19.1953 9.47042 19.54 9.68285 19.8941 9.65245C20.2215 9.62457 20.5092 9.39808 20.6116 9.08609C20.8454 8.37407 20.0449 7.72915 19.4001 8.11632Z" fill="#3D0606" fill-opacity="0.6"/>
<path d="M16.4001 28.1163C16.0501 28.3265 15.9091 28.7661 16.0601 29.143C16.1953 29.4704 16.54 29.6828 16.8941 29.6525C17.2215 29.6246 17.5092 29.3981 17.6116 29.0861C17.8454 28.3741 17.0449 27.7292 16.4001 28.1163Z" fill="#3D0606" fill-opacity="0.6"/>
<path d="M14.4001 31.1163C14.0501 31.3265 13.9091 31.7661 14.0601 32.143C14.1953 32.4704 14.54 32.6828 14.8941 32.6525C15.2215 32.6246 15.5092 32.3981 15.6116 32.0861C15.8454 31.3741 15.0449 30.7292 14.4001 31.1163Z" fill="#3D0606" fill-opacity="0.6"/>
<path d="M18.4001 31.1163C18.0501 31.3265 17.9091 31.7661 18.0601 32.143C18.1953 32.4704 18.54 32.6828 18.8941 32.6525C19.2215 32.6246 19.5092 32.3981 19.6116 32.0861C19.8454 31.3741 19.0449 30.7292 18.4001 31.1163Z" fill="#3D0606" fill-opacity="0.6"/>
<path d="M16.4001 34.1163C16.0501 34.3265 15.9091 34.7661 16.0601 35.143C16.1953 35.4704 16.54 35.6828 16.8941 35.6525C17.2215 35.6246 17.5092 35.3981 17.6116 35.0861C17.8454 34.3741 17.0449 33.7292 16.4001 34.1163Z" fill="#3D0606" fill-opacity="0.6"/>
<path d="M20.4001 34.1163C20.0501 34.3265 19.9091 34.7661 20.0601 35.143C20.1953 35.4704 20.54 35.6828 20.8941 35.6525C21.2215 35.6246 21.5092 35.3981 21.6116 35.0861C21.8454 34.3741 21.0449 33.7292 20.4001 34.1163Z" fill="#3D0606" fill-opacity="0.6"/>
<path d="M21.4001 29.1163C21.0501 29.3265 20.9091 29.7661 21.0601 30.143C21.1953 30.4704 21.54 30.6828 21.8941 30.6525C22.2215 30.6246 22.5092 30.3981 22.6116 30.0861C22.8454 29.3741 22.0449 28.7292 21.4001 29.1163Z" fill="#3D0606" fill-opacity="0.6"/>
<path d="M25.4001 29.1163C25.0501 29.3265 24.9091 29.7661 25.0601 30.143C25.1953 30.4704 25.54 30.6828 25.8941 30.6525C26.2215 30.6246 26.5092 30.3981 26.6116 30.0861C26.8454 29.3741 26.0449 28.7292 25.4001 29.1163Z" fill="#3D0606" fill-opacity="0.6"/>
<path d="M24.4001 34.1163C24.0501 34.3265 23.9091 34.7661 24.0601 35.143C24.1953 35.4704 24.54 35.6828 24.8941 35.6525C25.2215 35.6246 25.5092 35.3981 25.6116 35.0861C25.8454 34.3741 25.0449 33.7292 24.4001 34.1163Z" fill="#3D0606" fill-opacity="0.6"/>
<path d="M18.4001 38.1163C18.0501 38.3265 17.9091 38.7661 18.0601 39.143C18.1953 39.4704 18.54 39.6828 18.8941 39.6525C19.2215 39.6246 19.5092 39.3981 19.6116 39.0861C19.8454 38.3741 19.0449 37.7292 18.4001 38.1163Z" fill="#3D0606" fill-opacity="0.6"/>
<path d="M13.6096 13.2534C13.2736 13.1117 12.8668 13.2185 12.6424 13.5056C12.4308 13.7762 12.4078 14.1576 12.5871 14.4509C12.7734 14.7556 13.148 14.9091 13.4945 14.8216C13.8149 14.7405 14.0645 14.4678 14.1121 14.14C14.1664 13.7665 13.9559 13.4 13.6096 13.2534Z" fill="#3D0606" fill-opacity="0.6"/>
<path d="M10.9876 10.9043C10.8115 10.6463 10.4989 10.5013 10.1878 10.5437C9.81733 10.594 9.52396 10.8938 9.47689 11.2634C9.38441 11.9907 10.256 12.4649 10.8202 12.0076C11.1487 11.7413 11.2197 11.2567 10.9876 10.9043Z" fill="#3D0606" fill-opacity="0.6"/>
<path d="M11.5643 7.44874C11.398 7.12519 11.0229 6.94381 10.6658 7.0156C10.2981 7.08445 10.0183 7.41529 10.0009 7.78677C9.98368 8.15443 10.2181 8.49846 10.5681 8.61339C11.258 8.83966 11.896 8.09485 11.5643 7.44874Z" fill="#3D0606" fill-opacity="0.6"/>
<path d="M16.1429 4.06229C15.8069 3.92056 15.4002 4.02743 15.1758 4.31448C14.9641 4.58508 14.9411 4.96647 15.1204 5.25984C15.3067 5.56454 15.6813 5.71804 16.0279 5.63045C16.3483 5.5494 16.5978 5.27673 16.6454 4.94893C16.6997 4.57539 16.4892 4.20892 16.1429 4.06229Z" fill="#3D0606" fill-opacity="0.6"/>
<path d="M14.9876 8.90426C14.8115 8.6463 14.4989 8.5013 14.1878 8.54368C13.8173 8.59401 13.524 8.8938 13.4769 9.26343C13.3844 9.9907 14.256 10.4649 14.8202 10.0076C15.1487 9.74134 15.2197 9.25667 14.9876 8.90426Z" fill="#3D0606" fill-opacity="0.6"/>
<path d="M42.3218 0H18.108C17.6506 0 17.2797 0.370934 17.2797 0.828364C17.2797 1.28579 17.6506 1.65673 18.108 1.65673H42.3217C47.5986 1.65673 51.8765 5.93461 51.8765 11.2116V16.8518C51.8765 18.2476 51.3461 19.604 50.354 20.5859C49.0253 21.9008 48.293 23.6559 48.293 25.5237V37.5818C48.293 38.0393 48.6639 38.4102 49.1213 38.4102C49.5788 38.4102 49.9497 38.0393 49.9497 37.5818V25.5443C49.9497 24.1485 50.4801 22.7921 51.4722 21.8102C52.8009 20.4954 53.5332 18.7402 53.5332 16.8724V11.2116C53.5332 5.01953 48.5137 0 42.3218 0Z" fill="#3D0606" fill-opacity="0.6"/>
<path d="M49.1214 40.6192C48.664 40.6192 48.2931 40.9902 48.2931 41.4476V50.1629C48.2931 52.348 46.5216 54.1196 44.3363 54.1196H9.19708C7.0119 54.1196 5.24035 52.3482 5.24035 50.1629V25.5236C5.24035 23.6952 4.53639 21.9236 3.23404 20.6401C2.21721 19.638 1.65673 18.2982 1.65673 16.8723V11.2115C1.65673 5.93461 5.93461 1.65673 11.2115 1.65673H14.2421C14.6995 1.65673 15.0705 1.28579 15.0705 0.828364C15.0705 0.370934 14.6996 0 14.2422 0H11.2116C5.01964 0 0 5.01953 0 11.2116V16.8723C0 18.7007 0.703957 20.4724 2.00631 21.7558C3.02314 22.7579 3.58362 24.0977 3.58362 25.5236V50.1626C3.58362 53.2628 6.09682 55.7761 9.19708 55.7761H44.3364C47.4366 55.7761 49.9499 53.2629 49.9499 50.1626V41.4476C49.9498 40.9901 49.579 40.6192 49.1214 40.6192Z" fill="#3D0606" fill-opacity="0.6"/>
</svg>
