<svg width="49" height="52" viewBox="0 0 49 52" fill="none" xmlns="http://www.w3.org/2000/svg">
<path d="M8.07584 41.7968C7.92367 41.5007 7.58036 41.3347 7.2535 41.4004C6.91687 41.4634 6.66081 41.7662 6.64486 42.1063C6.6291 42.4428 6.84368 42.7577 7.16406 42.8629C7.79554 43.07 8.37946 42.3882 8.07584 41.7968Z" fill="#BB6BD9"/>
<path d="M8.44518 45.3294C8.1248 45.5217 7.99577 45.9242 8.13397 46.2691C8.25772 46.5688 8.57321 46.7633 8.89738 46.7354C9.19701 46.7099 9.46036 46.5026 9.55409 46.217C9.76807 45.5653 9.03538 44.975 8.44518 45.3294Z" fill="#BB6BD9"/>
<path d="M13.6094 45.2793C13.3018 45.1496 12.9295 45.2474 12.7241 45.5102C12.5304 45.7578 12.5093 46.1069 12.6735 46.3755C12.844 46.6544 13.1869 46.7949 13.5041 46.7147C13.7973 46.6405 14.0258 46.3909 14.0693 46.0909C14.119 45.749 13.9263 45.4135 13.6094 45.2793Z" fill="#BB6BD9"/>
<path d="M39.4743 45.266C39.1265 45.3897 38.9107 45.7648 38.9863 46.1276C39.0535 46.4516 39.3246 46.6999 39.6551 46.7344C39.9613 46.7664 40.2662 46.5972 40.405 46.3236C40.7092 45.7234 40.1065 45.041 39.4743 45.266Z" fill="#BB6BD9"/>
<path d="M27.8911 24.3251C27.6467 24.0262 27.2047 23.9644 26.8841 24.1758C26.3161 24.5497 26.5242 25.4576 27.1937 25.5561C27.8671 25.6553 28.3202 24.8498 27.8911 24.3251Z" fill="#BB6BD9"/>
<path d="M20.5579 37.8022C20.3135 37.5033 19.8715 37.4415 19.5509 37.6529C18.9829 38.0268 19.191 38.9347 19.8606 39.0332C20.5339 39.1324 20.987 38.327 20.5579 37.8022Z" fill="#BB6BD9"/>
<path d="M24.3328 23.5357C24.1768 23.2466 23.84 23.089 23.5177 23.1527C23.2117 23.2133 22.9705 23.4643 22.9187 23.7709C22.8604 24.1147 23.0542 24.4633 23.3762 24.5963C23.6857 24.7269 24.0593 24.6264 24.2645 24.3616C24.4471 24.126 24.4744 23.798 24.3328 23.5357Z" fill="#BB6BD9"/>
<path d="M19.7308 42.5017C19.5748 42.2125 19.238 42.055 18.9157 42.1187C18.6097 42.1792 18.3685 42.4303 18.3167 42.7369C18.2585 43.0806 18.4522 43.4292 18.7742 43.5622C19.0837 43.6929 19.4573 43.5923 19.6625 43.3276C19.8451 43.092 19.8724 42.7639 19.7308 42.5017Z" fill="#BB6BD9"/>
<path d="M23.3921 39.7557C23.236 39.4666 22.8993 39.309 22.5769 39.3727C22.271 39.4333 22.0298 39.6843 21.9779 39.991C21.9197 40.3347 22.1135 40.6833 22.4354 40.8163C22.7449 40.9469 23.1186 40.8464 23.3238 40.5817C23.5063 40.346 23.5337 40.018 23.3921 39.7557Z" fill="#BB6BD9"/>
<path d="M24.3074 43.417C24.1513 43.1278 23.8146 42.9703 23.4922 43.034C23.1863 43.0945 22.9451 43.3456 22.8932 43.6522C22.835 43.9959 23.0287 44.3445 23.3507 44.4775C23.6602 44.6082 24.0338 44.5077 24.2391 44.2429C24.4216 44.0073 24.4489 43.6792 24.3074 43.417Z" fill="#BB6BD9"/>
<path d="M27.9686 39.7557C27.8126 39.4666 27.4758 39.309 27.1535 39.3727C26.8475 39.4333 26.6063 39.6843 26.5545 39.991C26.4962 40.3347 26.69 40.6833 27.012 40.8163C27.3215 40.9469 27.6951 40.8464 27.9003 40.5817C28.0829 40.346 28.1102 40.018 27.9686 39.7557Z" fill="#BB6BD9"/>
<path d="M30.7146 35.1791C30.5586 34.89 30.2219 34.7324 29.8995 34.7961C29.5936 34.8567 29.3524 35.1077 29.3005 35.4144C29.2423 35.7581 29.436 36.1067 29.758 36.2397C30.0675 36.3703 30.4411 36.2698 30.6463 36.0051C30.8289 35.7694 30.8562 35.4414 30.7146 35.1791Z" fill="#BB6BD9"/>
<path d="M32.5452 41.5864C32.3892 41.2972 32.0524 41.1397 31.7301 41.2034C31.4241 41.2639 31.1829 41.515 31.1311 41.8216C31.0728 42.1653 31.2666 42.5139 31.5886 42.6469C31.8981 42.7775 32.2717 42.677 32.4769 42.4123C32.6595 42.1767 32.6868 41.8486 32.5452 41.5864Z" fill="#BB6BD9"/>
<path d="M36.2065 43.417C36.0505 43.1278 35.7137 42.9703 35.3914 43.034C35.0855 43.0945 34.8442 43.3456 34.7924 43.6522C34.7342 43.9959 34.9279 44.3445 35.2499 44.4775C35.5594 44.6082 35.933 44.5077 36.1382 44.2429C36.3208 44.0073 36.3481 43.6792 36.2065 43.417Z" fill="#BB6BD9"/>
<path d="M28.884 43.417C28.7279 43.1278 28.3912 42.9703 28.0688 43.034C27.7629 43.0945 27.5217 43.3456 27.4698 43.6522C27.4116 43.9959 27.6053 44.3445 27.9273 44.4775C28.2368 44.6082 28.6104 44.5077 28.8157 44.2429C28.9982 44.0073 29.0255 43.6792 28.884 43.417Z" fill="#BB6BD9"/>
<path d="M16.0695 42.5017C15.9135 42.2125 15.5767 42.055 15.2543 42.1187C14.9484 42.1792 14.7072 42.4303 14.6554 42.7369C14.5971 43.0806 14.7909 43.4292 15.1129 43.5622C15.4224 43.6929 15.796 43.5923 16.0012 43.3276C16.1838 43.092 16.2111 42.7639 16.0695 42.5017Z" fill="#BB6BD9"/>
<path d="M11.493 38.8404C11.3369 38.5512 11.0002 38.3937 10.6778 38.4574C10.3719 38.5179 10.1307 38.769 10.0788 39.0756C10.0206 39.4193 10.2143 39.7679 10.5363 39.9009C10.8458 40.0316 11.2195 39.9311 11.4247 39.6663C11.6072 39.4307 11.6346 39.1026 11.493 38.8404Z" fill="#BB6BD9"/>
<path d="M16.0695 38.8404C15.9135 38.5512 15.5767 38.3937 15.2543 38.4574C14.9484 38.5179 14.7072 38.769 14.6554 39.0756C14.5971 39.4193 14.7909 39.7679 15.1129 39.9009C15.4224 40.0316 15.796 39.9311 16.0012 39.6663C16.1838 39.4307 16.2111 39.1026 16.0695 38.8404Z" fill="#BB6BD9"/>
<path d="M41.8361 5.31651C41.5401 5.51364 41.4183 5.9088 41.5571 6.23746C41.6772 6.52244 41.9641 6.71299 42.2752 6.70511C42.5921 6.69704 42.8769 6.48594 42.9765 6.18511C43.1983 5.51514 42.4235 4.92524 41.8361 5.31651Z" fill="#BB6BD9"/>
<path d="M42.7935 8.77493C42.5902 8.57081 42.2729 8.49962 42.002 8.59754C41.6544 8.72317 41.4391 9.0947 41.5136 9.45935C41.6538 10.121 42.556 10.2851 42.9072 9.70026C43.084 9.40601 43.0355 9.01783 42.7935 8.77493Z" fill="#BB6BD9"/>
<path d="M43.4925 12.0988C43.2053 12.3448 43.1425 12.7813 43.3546 13.0958C43.7275 13.6617 44.6363 13.4568 44.7349 12.7867C44.8348 12.108 44.0137 11.6525 43.4925 12.0988Z" fill="#BB6BD9"/>
<path d="M27.0954 20.7254C26.9666 20.4205 26.6519 20.2287 26.3211 20.2607C26.0052 20.2913 25.7383 20.5239 25.6601 20.8307C25.4934 21.4852 26.2378 22.0121 26.8039 21.6534C27.1083 21.4602 27.236 21.0584 27.0954 20.7254Z" fill="#BB6BD9"/>
<path d="M38.2599 9.79489C37.8914 9.77605 37.5484 10.0406 37.4799 10.4046C37.338 11.0886 38.1682 11.5789 38.7036 11.1381C39.2277 10.7067 38.937 9.82949 38.2599 9.79489Z" fill="#BB6BD9"/>
<path d="M37.8403 6.11809C37.5505 6.36448 37.4942 6.80022 37.7023 7.11601C37.8873 7.3971 38.2524 7.51935 38.5705 7.41435C38.8567 7.31983 39.0634 7.05758 39.0887 6.75745C39.1444 6.09834 38.3452 5.68872 37.8403 6.11809Z" fill="#BB6BD9"/>
<path d="M39.1543 35.8228C38.8584 36.0199 38.7365 36.4151 38.8753 36.7437C38.9955 37.0287 39.2823 37.2193 39.5934 37.2114C39.9103 37.2033 40.1951 36.9922 40.2947 36.6914C40.5166 36.0214 39.7417 35.4315 39.1543 35.8228Z" fill="#BB6BD9"/>
<path d="M40.1118 39.2812C39.9085 39.0771 39.5912 39.0059 39.3202 39.1038C38.9726 39.2295 38.7574 39.601 38.8319 39.9657C38.972 40.6274 39.8743 40.7914 40.2254 40.2066C40.4022 39.9123 40.3538 39.5241 40.1118 39.2812Z" fill="#BB6BD9"/>
<path d="M40.8108 42.6051C40.5236 42.8511 40.4608 43.2876 40.6729 43.6021C41.0458 44.168 41.9546 43.9631 42.0532 43.293C42.1531 42.6143 41.332 42.1589 40.8108 42.6051Z" fill="#BB6BD9"/>
<path d="M35.5782 40.3012C35.2097 40.2823 34.8667 40.5469 34.7982 40.9109C34.6563 41.5949 35.4865 42.0851 36.0219 41.6444C36.546 41.213 36.2553 40.3358 35.5782 40.3012Z" fill="#BB6BD9"/>
<path d="M35.1587 36.6244C34.8688 36.8707 34.8126 37.3065 35.0207 37.6223C35.2057 37.9034 35.5708 38.0256 35.8889 37.9206C36.1751 37.8261 36.3818 37.5639 36.4071 37.2637C36.4627 36.6046 35.6635 36.195 35.1587 36.6244Z" fill="#BB6BD9"/>
<path d="M11.2094 43.1291C11.0481 42.893 10.762 42.7603 10.4773 42.7991C10.1381 42.8451 9.86961 43.1195 9.82654 43.4579C9.74188 44.1236 10.5397 44.5576 11.0561 44.139C11.3567 43.8953 11.4217 43.4517 11.2094 43.1291Z" fill="#BB6BD9"/>
<path d="M6.92374 8.64861C6.77158 8.35246 6.42826 8.18644 6.1014 8.25215C5.76477 8.31517 5.50871 8.61799 5.49276 8.95801C5.477 9.29454 5.69158 9.60944 6.01196 9.71464C6.64344 9.92174 7.22736 9.24 6.92374 8.64861Z" fill="#BB6BD9"/>
<path d="M7.29296 12.1811C6.97258 12.3735 6.84355 12.7759 6.98175 13.1208C7.1055 13.4206 7.42099 13.615 7.74516 13.5872C8.04479 13.5617 8.30813 13.3544 8.40186 13.0688C8.61585 12.4171 7.88316 11.8268 7.29296 12.1811Z" fill="#BB6BD9"/>
<path d="M9.5194 14.7516C9.19902 14.9439 9.06999 15.3464 9.20819 15.6913C9.33194 15.991 9.64743 16.1854 9.9716 16.1576C10.2712 16.1321 10.5346 15.9248 10.6283 15.6392C10.8423 14.9875 10.1096 14.3972 9.5194 14.7516Z" fill="#BB6BD9"/>
<path d="M14.096 14.7516C13.7756 14.9439 13.6466 15.3464 13.7848 15.6913C13.9085 15.991 14.224 16.1854 14.5482 16.1576C14.8478 16.1321 15.1112 15.9248 15.2049 15.6392C15.4189 14.9875 14.6862 14.3972 14.096 14.7516Z" fill="#BB6BD9"/>
<path d="M12.2653 17.4975C11.9449 17.6899 11.8159 18.0923 11.9541 18.4372C12.0778 18.737 12.3933 18.9314 12.7175 18.9036C13.0171 18.878 13.2805 18.6707 13.3742 18.3852C13.5882 17.7334 12.8555 17.1431 12.2653 17.4975Z" fill="#BB6BD9"/>
<path d="M15.9266 17.4975C15.6062 17.6899 15.4772 18.0923 15.6154 18.4372C15.7392 18.737 16.0547 18.9314 16.3788 18.9036C16.6785 18.878 16.9418 18.6707 17.0355 18.3852C17.2495 17.7334 16.5168 17.1431 15.9266 17.4975Z" fill="#BB6BD9"/>
<path d="M19.5879 16.5822C19.2675 16.7746 19.1385 17.177 19.2767 17.5219C19.4004 17.8216 19.7159 18.0161 20.0401 17.9883C20.3397 17.9627 20.6031 17.7554 20.6968 17.4699C20.9108 16.8181 20.1781 16.2278 19.5879 16.5822Z" fill="#BB6BD9"/>
<path d="M18.6726 19.3281C18.3522 19.5205 18.2232 19.9229 18.3614 20.2678C18.4851 20.5676 18.8006 20.762 19.1248 20.7342C19.4244 20.7087 19.6878 20.5014 19.7815 20.2158C19.9955 19.5641 19.2628 18.9738 18.6726 19.3281Z" fill="#BB6BD9"/>
<path d="M22.3339 19.3281C22.0135 19.5205 21.8844 19.9229 22.0226 20.2678C22.1464 20.5676 22.4619 20.762 22.786 20.7342C23.0857 20.7087 23.349 20.5014 23.4428 20.2158C23.6567 19.5641 22.9241 18.9738 22.3339 19.3281Z" fill="#BB6BD9"/>
<path d="M19.5879 22.9894C19.2675 23.1818 19.1385 23.5842 19.2767 23.9291C19.4004 24.2289 19.7159 24.4233 20.0401 24.3955C20.3397 24.37 20.6031 24.1627 20.6968 23.8771C20.9108 23.2254 20.1781 22.6351 19.5879 22.9894Z" fill="#BB6BD9"/>
<path d="M15.9266 21.1588C15.6062 21.3511 15.4772 21.7536 15.6154 22.0985C15.7392 22.3982 16.0547 22.5927 16.3788 22.5648C16.6785 22.5393 16.9418 22.332 17.0355 22.0464C17.2495 21.3947 16.5168 20.8044 15.9266 21.1588Z" fill="#BB6BD9"/>
<path d="M17.7573 12.9209C17.4369 13.1133 17.3078 13.5157 17.446 13.8606C17.5698 14.1604 17.8853 14.3548 18.2094 14.327C18.5091 14.3014 18.7724 14.0941 18.8662 13.8086C19.0801 13.1568 18.3475 12.5665 17.7573 12.9209Z" fill="#BB6BD9"/>
<path d="M23.2491 14.7516C22.9288 14.9439 22.7997 15.3464 22.9379 15.6913C23.0617 15.991 23.3772 16.1854 23.7013 16.1576C24.001 16.1321 24.2643 15.9248 24.358 15.6392C24.572 14.9875 23.8393 14.3972 23.2491 14.7516Z" fill="#BB6BD9"/>
<path d="M26.9104 16.5822C26.59 16.7746 26.461 17.177 26.5992 17.5219C26.7229 17.8216 27.0384 18.0161 27.3626 17.9883C27.6622 17.9627 27.9256 17.7554 28.0193 17.4699C28.2333 16.8181 27.5006 16.2278 26.9104 16.5822Z" fill="#BB6BD9"/>
<path d="M21.4185 11.0903C21.0981 11.2826 20.9691 11.6851 21.1073 12.03C21.231 12.3297 21.5465 12.5242 21.8707 12.4963C22.1703 12.4708 22.4337 12.2635 22.5274 11.9779C22.7414 11.3262 22.0087 10.7359 21.4185 11.0903Z" fill="#BB6BD9"/>
<path d="M15.0113 10.175C14.6909 10.3673 14.5619 10.7698 14.7001 11.1147C14.8238 11.4144 15.1393 11.6088 15.4635 11.581C15.7631 11.5555 16.0265 11.3482 16.1202 11.0626C16.3342 10.4109 15.6015 9.82059 15.0113 10.175Z" fill="#BB6BD9"/>
<path d="M17.7573 7.42902C17.4369 7.62137 17.3078 8.02381 17.446 8.36872C17.5698 8.66846 17.8853 8.8629 18.2094 8.83508C18.5091 8.80955 18.7724 8.60225 18.8662 8.31667C19.0801 7.66495 18.3475 7.07465 17.7573 7.42902Z" fill="#BB6BD9"/>
<path d="M15.0113 25.7354C14.6909 25.9277 14.5619 26.3302 14.7001 26.6751C14.8238 26.9748 15.1393 27.1693 15.4635 27.1414C15.7631 27.1159 16.0265 26.9086 16.1202 26.623C16.3342 25.9713 15.6015 25.381 15.0113 25.7354Z" fill="#BB6BD9"/>
<path d="M13.1807 28.4813C12.8603 28.6737 12.7312 29.0761 12.8694 29.421C12.9932 29.7208 13.3087 29.9152 13.6329 29.8874C13.9325 29.8619 14.1958 29.6546 14.2896 29.369C14.5035 28.7173 13.7709 28.127 13.1807 28.4813Z" fill="#BB6BD9"/>
<path d="M16.8419 28.4813C16.5215 28.6737 16.3925 29.0761 16.5307 29.421C16.6544 29.7208 16.9699 29.9152 17.2941 29.8874C17.5937 29.8619 17.8571 29.6546 17.9508 29.369C18.1648 28.7173 17.4321 28.127 16.8419 28.4813Z" fill="#BB6BD9"/>
<path d="M15.0113 31.2273C14.6909 31.4196 14.5619 31.8221 14.7001 32.167C14.8238 32.4667 15.1393 32.6612 15.4635 32.6334C15.7631 32.6078 16.0265 32.4005 16.1202 32.1149C16.3342 31.4632 15.6015 30.8729 15.0113 31.2273Z" fill="#BB6BD9"/>
<path d="M18.6726 31.2273C18.3522 31.4196 18.2232 31.8221 18.3614 32.167C18.4851 32.4667 18.8006 32.6612 19.1248 32.6334C19.4244 32.6078 19.6878 32.4005 19.7815 32.1149C19.9955 31.4632 19.2628 30.8729 18.6726 31.2273Z" fill="#BB6BD9"/>
<path d="M19.5879 26.6507C19.2675 26.8431 19.1385 27.2455 19.2767 27.5904C19.4004 27.8901 19.7159 28.0846 20.0401 28.0568C20.3397 28.0312 20.6031 27.8239 20.6968 27.5383C20.9108 26.8866 20.1781 26.2963 19.5879 26.6507Z" fill="#BB6BD9"/>
<path d="M23.2491 26.6507C22.9288 26.8431 22.7997 27.2455 22.9379 27.5904C23.0617 27.8901 23.3772 28.0846 23.7013 28.0568C24.001 28.0312 24.2643 27.8239 24.358 27.5383C24.572 26.8866 23.8393 26.2963 23.2491 26.6507Z" fill="#BB6BD9"/>
<path d="M22.3339 31.2273C22.0135 31.4196 21.8844 31.8221 22.0226 32.167C22.1464 32.4667 22.4619 32.6612 22.786 32.6334C23.0857 32.6078 23.349 32.4005 23.4428 32.1149C23.6567 31.4632 22.9241 30.8729 22.3339 31.2273Z" fill="#BB6BD9"/>
<path d="M16.8419 34.8886C16.5215 35.0809 16.3925 35.4834 16.5307 35.8283C16.6544 36.128 16.9699 36.3224 17.2941 36.2946C17.5937 36.2691 17.8571 36.0618 17.9508 35.7762C18.1648 35.1245 17.4321 34.5342 16.8419 34.8886Z" fill="#BB6BD9"/>
<path d="M12.4571 12.1311C12.1496 12.0014 11.7773 12.0992 11.5719 12.3619C11.3781 12.6096 11.3571 12.9587 11.5212 13.2272C11.6917 13.5061 12.0347 13.6466 12.3518 13.5664C12.6451 13.4923 12.8735 13.2427 12.9171 12.9426C12.9668 12.6007 12.7741 12.2653 12.4571 12.1311Z" fill="#BB6BD9"/>
<path d="M10.0572 9.98087C9.89596 9.74475 9.60988 9.61203 9.3251 9.65082C8.98598 9.69688 8.71745 9.97129 8.67438 10.3096C8.58972 10.9753 9.38752 11.4094 9.90394 10.9908C10.2046 10.7471 10.2696 10.3034 10.0572 9.98087Z" fill="#BB6BD9"/>
<path d="M10.585 6.81796C10.4328 6.52181 10.0895 6.35579 9.76266 6.42151C9.42603 6.48452 9.16997 6.78735 9.15401 7.12737C9.13826 7.4639 9.35284 7.7788 9.67322 7.88399C10.3047 8.0911 10.8886 7.40936 10.585 6.81796Z" fill="#BB6BD9"/>
<path d="M14.7759 3.71828C14.4684 3.58856 14.0961 3.68637 13.8907 3.94912C13.6969 4.1968 13.6759 4.5459 13.84 4.81443C14.0105 5.09332 14.3534 5.23382 14.6706 5.15365C14.9639 5.07947 15.1923 4.82988 15.2359 4.52985C15.2856 4.18793 15.0929 3.8525 14.7759 3.71828Z" fill="#BB6BD9"/>
<path d="M13.7185 8.15024C13.5573 7.91412 13.2712 7.7814 12.9864 7.82019C12.6473 7.86626 12.3788 8.14067 12.3357 8.47899C12.251 9.14467 13.0488 9.57873 13.5653 9.16013C13.8659 8.91643 13.9309 8.47281 13.7185 8.15024Z" fill="#BB6BD9"/>
<path d="M38.738 0H16.5747C16.156 0 15.8165 0.339522 15.8165 0.758217C15.8165 1.17691 16.156 1.51643 16.5747 1.51643H38.7379C43.568 1.51643 47.4836 5.43206 47.4836 10.2622V15.4248C47.4836 16.7024 46.9981 17.9439 46.09 18.8426C44.8738 20.0462 44.2035 21.6527 44.2035 23.3623V34.3994C44.2035 34.8181 44.5431 35.1576 44.9617 35.1576C45.3804 35.1576 45.72 34.8181 45.72 34.3994V23.3812C45.72 22.1036 46.2055 20.862 47.1136 19.9633C48.3298 18.7598 49 17.1532 49 15.4436V10.2622C49 4.59447 44.4055 0 38.738 0Z" fill="#BB6BD9"/>
<path d="M44.9617 37.1795C44.543 37.1795 44.2035 37.5191 44.2035 37.9378V45.915C44.2035 47.9151 42.5821 49.5367 40.5818 49.5367H8.41826C6.41812 49.5367 4.79659 47.9152 4.79659 45.915V23.3622C4.79659 21.6886 4.15224 20.0671 2.96018 18.8923C2.02946 17.975 1.51643 16.7487 1.51643 15.4435V10.2621C1.51643 5.43206 5.43206 1.51643 10.2621 1.51643H13.0361C13.4548 1.51643 13.7943 1.17691 13.7943 0.758217C13.7943 0.339522 13.4549 0 13.0362 0H10.2622C4.59457 0 0 4.59447 0 10.2622V15.4435C0 17.1171 0.644345 18.7387 1.83641 19.9135C2.76713 20.8307 3.28016 22.0571 3.28016 23.3622V45.9148C3.28016 48.7524 5.58053 51.0529 8.41826 51.0529H40.5819C43.4196 51.0529 45.7201 48.7525 45.7201 45.9148V37.9378C45.72 37.519 45.3805 37.1795 44.9617 37.1795Z" fill="#BB6BD9"/>
</svg>
