<svg width="56" height="59" viewBox="0 0 56 59" fill="none" xmlns="http://www.w3.org/2000/svg">
<path fill-rule="evenodd" clip-rule="evenodd" d="M0 26.0702C0 25.5179 0.447715 25.0702 1 25.0702H55C55.5523 25.0702 56 25.5179 56 26.0702C56 26.6225 55.5523 27.0702 55 27.0702H1C0.447715 27.0702 0 26.6225 0 26.0702Z" fill="#2F80ED"/>
<path fill-rule="evenodd" clip-rule="evenodd" d="M50.4952 16.1675C50.8793 16.5643 50.869 17.1974 50.4722 17.5815L41.4674 26.2975C41.0706 26.6816 40.4375 26.6713 40.0534 26.2744C39.6693 25.8776 39.6796 25.2445 40.0764 24.8604L49.0812 16.1444C49.478 15.7603 50.1111 15.7706 50.4952 16.1675Z" fill="#2F80ED"/>
<path fill-rule="evenodd" clip-rule="evenodd" d="M32.9291 15.5231C32.7855 14.9898 33.1015 14.4411 33.6348 14.2975L46.4067 10.8589C46.94 10.7153 47.4887 11.0313 47.6323 11.5646C47.7759 12.0979 47.4599 12.6466 46.9266 12.7901L34.1547 16.2287C33.6214 16.3723 33.0727 16.0564 32.9291 15.5231Z" fill="#2F80ED"/>
<path fill-rule="evenodd" clip-rule="evenodd" d="M30.2052 1.03201C30.7398 0.893404 31.2856 1.21443 31.4242 1.74904L34.8628 15.0122C35.0014 15.5468 34.6803 16.0926 34.1457 16.2312C33.6111 16.3698 33.0654 16.0487 32.9268 15.5141L29.4882 2.25096C29.3496 1.71636 29.6706 1.17061 30.2052 1.03201Z" fill="#2F80ED"/>
<path fill-rule="evenodd" clip-rule="evenodd" d="M42.2633 1.1392C42.7387 1.42029 42.8962 2.03354 42.6151 2.50895L28.6737 26.0879C28.3926 26.5633 27.7793 26.7208 27.3039 26.4397C26.8285 26.1586 26.671 25.5453 26.9521 25.0699L40.8935 1.49103C41.1746 1.01563 41.7879 0.858107 42.2633 1.1392Z" fill="#2F80ED"/>
<path fill-rule="evenodd" clip-rule="evenodd" d="M4.49795 16.1675C4.11384 16.5643 4.12415 17.1974 4.52099 17.5815L13.5257 26.2975C13.9226 26.6816 14.5557 26.6713 14.9398 26.2744C15.3239 25.8776 15.3136 25.2445 14.9167 24.8604L5.91197 16.1444C5.51514 15.7603 4.88206 15.7706 4.49795 16.1675Z" fill="#2F80ED"/>
<path fill-rule="evenodd" clip-rule="evenodd" d="M22.064 15.5231C22.2076 14.9898 21.8917 14.4411 21.3584 14.2975L8.58647 10.8589C8.05317 10.7153 7.50446 11.0313 7.36088 11.5646C7.2173 12.0979 7.53323 12.6466 8.06652 12.7901L20.8385 16.2287C21.3717 16.3723 21.9205 16.0564 22.064 15.5231Z" fill="#2F80ED"/>
<path fill-rule="evenodd" clip-rule="evenodd" d="M24.788 1.03201C24.2534 0.893404 23.7076 1.21443 23.569 1.74904L20.1304 15.0122C19.9918 15.5468 20.3128 16.0926 20.8474 16.2312C21.3821 16.3698 21.9278 16.0487 22.0664 15.5141L25.505 2.25096C25.6436 1.71636 25.3226 1.17061 24.788 1.03201Z" fill="#2F80ED"/>
<path fill-rule="evenodd" clip-rule="evenodd" d="M12.7299 1.1392C12.2545 1.42029 12.097 2.03354 12.3781 2.50895L26.3195 26.0879C26.6006 26.5633 27.2138 26.7208 27.6892 26.4397C28.1646 26.1586 28.3222 25.5453 28.0411 25.0699L14.0996 1.49103C13.8185 1.01563 13.2053 0.858107 12.7299 1.1392Z" fill="#2F80ED"/>
<path fill-rule="evenodd" clip-rule="evenodd" d="M43.2281 46.6667C45.9217 46.6667 48.1053 44.4831 48.1053 41.7895C48.1053 41.3333 47.8628 40.4754 47.2436 39.2429C46.6583 38.0778 45.8571 36.8094 45.0246 35.6122C44.3979 34.7108 43.7688 33.8718 43.2281 33.1762C42.6874 33.8718 42.0583 34.7108 41.4315 35.6122C40.5991 36.8094 39.7979 38.0778 39.2126 39.2429C38.5933 40.4754 38.3509 41.3333 38.3509 41.7895C38.3509 44.4831 40.5345 46.6667 43.2281 46.6667ZM41.9411 31.5759C39.9502 34.0994 36.3509 39.0417 36.3509 41.7895C36.3509 45.5876 39.4299 48.6667 43.2281 48.6667C47.0263 48.6667 50.1053 45.5876 50.1053 41.7895C50.1053 39.0417 46.5059 34.0994 44.5151 31.5759C43.7541 30.6112 43.2281 30 43.2281 30C43.2281 30 42.7021 30.6112 41.9411 31.5759Z" fill="#2F80ED"/>
<path d="M41.2631 42.7719C41.2631 43.3145 40.8233 43.7544 40.2807 43.7544C39.7381 43.7544 39.2982 43.3145 39.2982 42.7719C39.2982 42.2293 39.7381 41.7895 40.2807 41.7895C40.8233 41.7895 41.2631 42.2293 41.2631 42.7719Z" fill="#2F80ED"/>
<path fill-rule="evenodd" clip-rule="evenodd" d="M11.7895 46.6667C14.4831 46.6667 16.6667 44.4831 16.6667 41.7895C16.6667 41.3333 16.4242 40.4754 15.805 39.2429C15.2197 38.0778 14.4185 36.8094 13.586 35.6122C12.9593 34.7108 12.3302 33.8718 11.7895 33.1762C11.2488 33.8718 10.6197 34.7108 9.99294 35.6122C9.16051 36.8094 8.35931 38.0778 7.77399 39.2429C7.15475 40.4754 6.91229 41.3333 6.91229 41.7895C6.91229 44.4831 9.09589 46.6667 11.7895 46.6667ZM10.5025 31.5759C8.51162 34.0994 4.91229 39.0417 4.91229 41.7895C4.91229 45.5876 7.99132 48.6667 11.7895 48.6667C15.5877 48.6667 18.6667 45.5876 18.6667 41.7895C18.6667 39.0417 15.0673 34.0994 13.0765 31.5759C12.3155 30.6112 11.7895 30 11.7895 30C11.7895 30 11.2635 30.6112 10.5025 31.5759Z" fill="#2F80ED"/>
<path d="M9.82453 42.7719C9.82453 43.3145 9.38467 43.7544 8.84208 43.7544C8.29948 43.7544 7.85962 43.3145 7.85962 42.7719C7.85962 42.2293 8.29948 41.7895 8.84208 41.7895C9.38467 41.7895 9.82453 42.2293 9.82453 42.7719Z" fill="#2F80ED"/>
<path fill-rule="evenodd" clip-rule="evenodd" d="M27.5088 56.4912C30.2024 56.4912 32.386 54.3076 32.386 51.614C32.386 51.1578 32.1435 50.3 31.5243 49.0674C30.939 47.9024 30.1378 46.6339 29.3053 45.4368C28.6786 44.5354 28.0495 43.6963 27.5088 43.0008C26.9681 43.6963 26.339 44.5354 25.7122 45.4368C24.8798 46.6339 24.0786 47.9024 23.4933 49.0674C22.874 50.3 22.6316 51.1578 22.6316 51.614C22.6316 54.3076 24.8152 56.4912 27.5088 56.4912ZM26.2218 41.4004C24.2309 43.9239 20.6316 48.8663 20.6316 51.614C20.6316 55.4122 23.7106 58.4912 27.5088 58.4912C31.307 58.4912 34.386 55.4122 34.386 51.614C34.386 48.8663 30.7866 43.9239 28.7958 41.4004C28.0348 40.4358 27.5088 39.8246 27.5088 39.8246C27.5088 39.8246 26.9828 40.4358 26.2218 41.4004Z" fill="#2F80ED"/>
<path d="M25.5438 52.5965C25.5438 53.1391 25.104 53.5789 24.5614 53.5789C24.0188 53.5789 23.5789 53.1391 23.5789 52.5965C23.5789 52.0539 24.0188 51.614 24.5614 51.614C25.104 51.614 25.5438 52.0539 25.5438 52.5965Z" fill="#2F80ED"/>
</svg>
