<svg width="60" height="60" viewBox="0 0 60 60" fill="none" xmlns="http://www.w3.org/2000/svg">
<path d="M34.1579 35.1128C34.4673 35.1411 34.7809 35.1562 35.0977 35.1562C39.1068 35.1562 42.5853 32.8432 44.2703 29.4818C44.2937 29.4424 44.3147 29.4012 44.3321 29.3578C44.9849 28.0096 45.3516 26.4981 45.3516 24.9023C45.3516 19.2485 40.752 14.6484 35.0977 14.6484C33.6172 14.6484 32.2092 14.9643 30.937 15.5315C30.8968 15.5461 30.8578 15.5644 30.8199 15.5846C27.296 17.2087 24.8438 20.7742 24.8438 24.9023C24.8438 30.2367 28.9384 34.6321 34.1496 35.1118C34.1524 35.1123 34.1551 35.1128 34.1579 35.1128ZM43.5938 24.9023C43.5938 25.0754 43.5869 25.2466 43.5768 25.4169C43.1122 24.7339 42.4823 24.2097 41.8684 23.6998C41.4024 23.3121 40.9616 22.9463 40.6416 22.5453C40.3189 22.1411 40.0575 21.6275 39.7815 21.0837C39.332 20.2002 38.8678 19.2865 38.0402 18.6255C37.2157 17.9668 36.2224 17.7164 35.2615 17.4738C34.6687 17.3241 34.1084 17.1831 33.6392 16.9565C33.4602 16.87 33.2817 16.7638 33.1023 16.6452C33.7427 16.4905 34.4101 16.4062 35.0977 16.4062C39.7824 16.4062 43.5938 20.2176 43.5938 24.9023ZM26.8227 26.8204C27.9428 27.0795 29.0025 27.5656 29.9359 28.2532C30.0929 28.369 30.2756 28.4244 30.4564 28.4244C30.7265 28.4244 30.9924 28.3008 31.165 28.0669C31.4529 27.6764 31.3696 27.1257 30.9787 26.8378C29.6823 25.8829 28.1827 25.2507 26.6039 24.9861C26.6034 24.9582 26.6016 24.9303 26.6016 24.9023C26.6016 21.6458 28.4441 18.8132 31.1403 17.3872C31.1549 17.3987 31.17 17.4097 31.1847 17.4207C31.712 17.8239 32.2572 18.241 32.8752 18.5394C33.5056 18.8438 34.1798 19.0137 34.8317 19.178C35.6465 19.3835 36.4165 19.5781 36.9434 19.9988C37.4734 20.4222 37.8333 21.1304 38.2146 21.8806C38.5185 22.4789 38.8335 23.0978 39.2688 23.6426C39.7005 24.1832 40.2315 24.6249 40.7455 25.0516C41.3947 25.5913 42.0081 26.1008 42.3056 26.7174C42.5816 27.2896 42.6114 28.0339 42.6302 28.8258C41.2102 31.5404 38.3675 33.3984 35.0977 33.3984C35.0697 33.3984 35.0423 33.3966 35.0143 33.3961C34.8065 32.1428 34.3707 30.9531 33.7134 29.8512C33.4648 29.4342 32.9251 29.2982 32.5085 29.5468C32.0915 29.7954 31.9551 30.3351 32.2037 30.7516C32.6578 31.5129 32.9814 32.3259 33.1773 33.1769C30.0316 32.4472 27.5519 29.9666 26.8227 26.8204Z" fill="#F2994A"/>
<path d="M60 24.9023C60 18.2506 57.4095 11.9971 52.7065 7.29355C48.0029 2.59048 41.7494 0 35.0977 0C30.325 0 25.6874 1.35452 21.6861 3.91663C21.2773 4.17847 21.1583 4.72229 21.4197 5.13062C21.6815 5.53986 22.2253 5.65842 22.6341 5.39703C26.3516 3.0162 30.6615 1.75781 35.0977 1.75781C47.8596 1.75781 58.2422 12.1404 58.2422 24.9023C58.2422 37.6643 47.8596 48.0469 35.0977 48.0469C22.3357 48.0469 11.9531 37.6643 11.9531 24.9023C11.9531 18.2831 14.7972 11.9669 19.7552 7.5737C20.1187 7.25143 20.1526 6.69617 19.8303 6.3327C19.5085 5.9697 18.9532 5.93582 18.5898 6.25763C16.3614 8.23196 14.5322 10.5679 13.1548 13.1374C5.03403 17.4861 0 25.876 0 35.0977C0 41.7494 2.59048 48.0029 7.29355 52.7065C11.9971 57.4095 18.2506 60 24.9023 60C29.5656 60 34.1125 58.7032 38.0521 56.2491C38.4641 55.9923 38.5899 55.4503 38.3331 55.0383C38.0763 54.6263 37.5343 54.5004 37.1223 54.7572C33.4625 57.0369 29.2365 58.2422 24.9023 58.2422C12.1404 58.2422 1.75781 47.8596 1.75781 35.0977C1.75781 27.3656 5.56549 20.2625 11.8529 15.9782C11.3736 17.2256 10.995 18.5129 10.7208 19.8271C10.4572 20.2368 10.2351 20.6676 10.0218 21.0869C9.74579 21.6298 9.48486 22.142 9.16306 22.5453C8.84308 22.9459 8.40225 23.3121 7.93625 23.6998C7.17087 24.3356 6.37985 24.993 5.91614 25.9534C5.46021 26.8982 5.43732 27.9195 5.41489 28.9073C5.40115 29.5216 5.38788 30.1021 5.27069 30.618C5.16037 31.1046 4.92599 31.6177 4.67789 32.1611C4.28192 33.029 3.83331 34.0123 3.83331 35.0977C3.83331 36.1839 4.28192 37.1677 4.67834 38.0356C4.92599 38.5789 5.16037 39.0921 5.27069 39.5796C5.38788 40.0941 5.40115 40.6746 5.41489 41.2889C5.43732 42.2768 5.46021 43.298 5.91614 44.2415C6.37939 45.2028 7.17133 45.8611 7.93671 46.4973C8.40271 46.8846 8.84308 47.2504 9.16306 47.6509C9.48578 48.0551 9.74716 48.5687 10.0232 49.1125C10.4723 49.996 10.9369 50.9097 11.7645 51.5707C12.589 52.2285 13.5818 52.4794 14.5422 52.722C15.1355 52.8717 15.6958 53.0136 16.1655 53.2397C16.6209 53.4595 17.0718 53.8046 17.5488 54.1695C18.343 54.7765 19.1638 55.4045 20.2144 55.6435C21.2238 55.8733 22.2185 55.6696 23.1798 55.4723C23.7891 55.3473 24.3645 55.2292 24.9023 55.2292C25.4402 55.2292 26.0156 55.3473 26.6249 55.4723C27.2832 55.6073 27.9565 55.7451 28.64 55.7451C28.9549 55.7451 29.2717 55.7158 29.5903 55.6435C30.6409 55.4045 31.4616 54.7765 32.2559 54.1695C32.7328 53.8046 33.1837 53.4599 33.6383 53.2402C34.1084 53.0136 34.6687 52.8722 35.262 52.722C36.2224 52.4794 37.2153 52.2285 38.0392 51.5707C38.779 50.9798 39.2294 50.186 39.6378 49.3922C41.1351 49.118 42.5958 48.7093 44.0057 48.1705C42.8819 49.8111 41.5512 51.2993 40.0296 52.6149C39.662 52.9321 39.6217 53.4874 39.939 53.8545C40.1129 54.0555 40.3578 54.1589 40.6046 54.1589C40.8083 54.1589 41.0129 54.0884 41.179 53.9447C43.4985 51.9397 45.4047 49.5598 46.8503 46.87C48.9784 45.7278 50.9505 44.2667 52.7065 42.5111C57.4095 37.8076 60 31.5541 60 24.9023ZM36.942 50.1974C36.4156 50.6177 35.6461 50.8122 34.8317 51.0178C34.1798 51.1826 33.5056 51.3528 32.8743 51.6573C32.2581 51.9548 31.7139 52.3709 31.1879 52.7733C30.5141 53.2887 29.8773 53.7753 29.2003 53.9291C28.5612 54.0747 27.7922 53.9172 26.9778 53.7502C26.3095 53.6133 25.6187 53.4714 24.9023 53.4714C24.1859 53.4714 23.4952 53.6133 22.8268 53.7502C22.0125 53.9172 21.243 54.0747 20.6044 53.9291C19.9274 53.7753 19.2906 53.2887 18.6168 52.7733C18.0908 52.3709 17.5465 51.9548 16.9299 51.6568C16.2991 51.3528 15.6248 51.1826 14.9725 51.0178C14.1577 50.8122 13.3882 50.6177 12.8613 50.1974C12.3317 49.774 11.9714 49.0659 11.5901 48.316C11.2862 47.7173 10.9712 47.0984 10.5363 46.5536C10.1047 46.0135 9.57367 45.5722 9.06052 45.1456C8.41049 44.6054 7.79709 44.0955 7.49908 43.4775C7.20886 42.8769 7.19101 42.0863 7.17224 41.2491C7.15714 40.5743 7.14111 39.8767 6.98502 39.1905C6.83441 38.5272 6.55106 37.9065 6.27731 37.3059C5.92438 36.5323 5.59113 35.8017 5.59113 35.0977C5.59113 34.3945 5.92438 33.6644 6.27731 32.8912C6.55106 32.2906 6.83487 31.6695 6.98456 31.0071C7.14111 30.3191 7.15714 29.6214 7.17224 28.9467C7.19101 28.1094 7.20932 27.3189 7.49954 26.7174C7.79709 26.1012 8.41003 25.5913 9.0596 25.0516C9.45145 24.7261 9.85291 24.3919 10.2136 24.0115C10.2026 24.3082 10.1953 24.6048 10.1953 24.9023C10.1953 38.6334 21.3666 49.8047 35.0977 49.8047C35.8763 49.8047 36.649 49.7676 37.4149 49.6976C37.2711 49.8889 37.1159 50.0583 36.942 50.1974Z" fill="#F2994A"/>
</svg>
