<svg width="54" height="56" viewBox="0 0 54 56" fill="none" xmlns="http://www.w3.org/2000/svg">
<path d="M8.82305 45.6637C8.65681 45.3402 8.28173 45.1588 7.92464 45.2306C7.55686 45.2994 7.27711 45.6303 7.25968 46.0018C7.24247 46.3694 7.4769 46.7135 7.82692 46.8284C8.51682 47.0547 9.15476 46.3098 8.82305 45.6637Z" fill="#3D0606" fill-opacity="0.6"/>
<path d="M9.22649 49.5231C8.87648 49.7332 8.73551 50.1729 8.8865 50.5497C9.02169 50.8772 9.36637 51.0896 9.72053 51.0592C10.0479 51.0313 10.3356 50.8049 10.438 50.4929C10.6718 49.7808 9.8713 49.1359 9.22649 49.5231Z" fill="#3D0606" fill-opacity="0.6"/>
<path d="M45.7065 5.80836C45.3832 6.02373 45.2501 6.45546 45.4017 6.81452C45.533 7.12586 45.8464 7.33404 46.1863 7.32543C46.5325 7.31661 46.8436 7.08599 46.9524 6.75732C47.1948 6.02537 46.3483 5.38089 45.7065 5.80836Z" fill="#3D0606" fill-opacity="0.6"/>
<path d="M46.7525 9.58675C46.5304 9.36376 46.1838 9.28598 45.8878 9.39295C45.508 9.53021 45.2728 9.93612 45.3542 10.3345C45.5074 11.0574 46.493 11.2366 46.8767 10.5977C47.0699 10.2762 47.0169 9.85213 46.7525 9.58675Z" fill="#3D0606" fill-opacity="0.6"/>
<path d="M47.5162 13.2181C47.2025 13.4868 47.1339 13.9638 47.3656 14.3074C47.773 14.9256 48.7659 14.7017 48.8736 13.9697C48.9828 13.2282 48.0857 12.7306 47.5162 13.2181Z" fill="#3D0606" fill-opacity="0.6"/>
<path d="M41.7996 10.7011C41.3969 10.6805 41.0222 10.9695 40.9474 11.3672C40.7923 12.1144 41.6994 12.6501 42.2844 12.1686C42.8569 11.6972 42.5393 10.7389 41.7996 10.7011Z" fill="#3D0606" fill-opacity="0.6"/>
<path d="M41.3412 6.68408C41.0245 6.95327 40.9631 7.42933 41.1904 7.77433C41.3925 8.08143 41.7914 8.21499 42.139 8.10027C42.4516 7.997 42.6774 7.71049 42.7051 7.38259C42.7659 6.66251 41.8928 6.21499 41.3412 6.68408Z" fill="#3D0606" fill-opacity="0.6"/>
<path d="M42.3218 0H18.108C17.6506 0 17.2797 0.370934 17.2797 0.828364C17.2797 1.28579 17.6506 1.65673 18.108 1.65673H42.3217C47.5986 1.65673 51.8765 5.93461 51.8765 11.2116V16.8518C51.8765 18.2476 51.3461 19.604 50.354 20.5859C49.0253 21.9008 48.293 23.6559 48.293 25.5237V37.5818C48.293 38.0393 48.6639 38.4102 49.1213 38.4102C49.5788 38.4102 49.9497 38.0393 49.9497 37.5818V25.5443C49.9497 24.1485 50.4801 22.7921 51.4722 21.8102C52.8009 20.4954 53.5332 18.7402 53.5332 16.8724V11.2116C53.5332 5.01953 48.5137 0 42.3218 0Z" fill="#3D0606" fill-opacity="0.6"/>
<path d="M49.1214 40.6192C48.664 40.6192 48.2931 40.9902 48.2931 41.4476V50.1629C48.2931 52.348 46.5216 54.1196 44.3363 54.1196H9.19708C7.0119 54.1196 5.24035 52.3482 5.24035 50.1629V25.5236C5.24035 23.6952 4.53639 21.9236 3.23404 20.6401C2.21721 19.638 1.65673 18.2982 1.65673 16.8723V11.2115C1.65673 5.93461 5.93461 1.65673 11.2115 1.65673H14.2421C14.6995 1.65673 15.0705 1.28579 15.0705 0.828364C15.0705 0.370934 14.6996 0 14.2422 0H11.2116C5.01964 0 0 5.01953 0 11.2116V16.8723C0 18.7007 0.703957 20.4724 2.00631 21.7558C3.02314 22.7579 3.58362 24.0977 3.58362 25.5236V50.1626C3.58362 53.2628 6.09682 55.7761 9.19708 55.7761H44.3364C47.4366 55.7761 49.9499 53.2629 49.9499 50.1626V41.4476C49.9498 40.9901 49.579 40.6192 49.1214 40.6192Z" fill="#3D0606" fill-opacity="0.6"/>
</svg>
