<svg width="54" height="56" viewBox="0 0 54 56" fill="none" xmlns="http://www.w3.org/2000/svg">
<path d="M8.82305 45.6637C8.65681 45.3402 8.28173 45.1588 7.92464 45.2306C7.55686 45.2994 7.27711 45.6303 7.25968 46.0018C7.24247 46.3694 7.4769 46.7135 7.82692 46.8284C8.51682 47.0547 9.15476 46.3098 8.82305 45.6637Z" fill="#3D0606" fill-opacity="0.6"/>
<path d="M9.22649 49.5231C8.87648 49.7332 8.73551 50.1729 8.8865 50.5497C9.02169 50.8772 9.36637 51.0896 9.72053 51.0592C10.0479 51.0313 10.3356 50.8049 10.438 50.4929C10.6718 49.7808 9.8713 49.1359 9.22649 49.5231Z" fill="#3D0606" fill-opacity="0.6"/>
<path d="M14.8684 49.4684C14.5324 49.3267 14.1256 49.4335 13.9012 49.7206C13.6896 49.9912 13.6666 50.3726 13.8459 50.6659C14.0322 50.9706 14.4068 51.1241 14.7533 51.0365C15.0737 50.9555 15.3233 50.6828 15.3709 50.355C15.4252 49.9815 15.2147 49.615 14.8684 49.4684Z" fill="#3D0606" fill-opacity="0.6"/>
<path d="M43.1263 49.4538C42.7463 49.589 42.5106 49.9988 42.5931 50.3951C42.6666 50.7491 42.9628 51.0204 43.3239 51.0581C43.6583 51.0931 43.9915 50.9082 44.1431 50.6093C44.4755 49.9535 43.817 49.208 43.1263 49.4538Z" fill="#3D0606" fill-opacity="0.6"/>
<path d="M30.4715 26.5755C30.2045 26.249 29.7216 26.1815 29.3713 26.4124C28.7507 26.8209 28.9781 27.8128 29.7096 27.9205C30.4452 28.0289 30.9402 27.1489 30.4715 26.5755Z" fill="#3D0606" fill-opacity="0.6"/>
<path d="M22.4599 41.2995C22.1929 40.973 21.71 40.9055 21.3597 41.1364C20.7391 41.5449 20.9665 42.5368 21.698 42.6444C22.4336 42.7528 22.9287 41.8728 22.4599 41.2995Z" fill="#3D0606" fill-opacity="0.6"/>
<path d="M26.584 25.7132C26.4135 25.3972 26.0457 25.2251 25.6935 25.2947C25.3592 25.3609 25.0957 25.6352 25.0391 25.9701C24.9755 26.3457 25.1871 26.7265 25.5389 26.8718C25.877 27.0145 26.2852 26.9047 26.5094 26.6155C26.7089 26.3581 26.7387 25.9997 26.584 25.7132Z" fill="#3D0606" fill-opacity="0.6"/>
<path d="M21.5562 46.4338C21.3857 46.1179 21.0178 45.9457 20.6656 46.0153C20.3314 46.0815 20.0679 46.3558 20.0112 46.6908C19.9476 47.0663 20.1593 47.4471 20.5111 47.5924C20.8492 47.7351 21.2574 47.6253 21.4816 47.3361C21.681 47.0787 21.7109 46.7203 21.5562 46.4338Z" fill="#3D0606" fill-opacity="0.6"/>
<path d="M25.5562 43.4338C25.3857 43.1179 25.0178 42.9457 24.6656 43.0153C24.3314 43.0815 24.0679 43.3558 24.0112 43.6908C23.9476 44.0663 24.1593 44.4471 24.5111 44.5924C24.8492 44.7351 25.2574 44.6253 25.4816 44.3361C25.681 44.0787 25.7109 43.7203 25.5562 43.4338Z" fill="#3D0606" fill-opacity="0.6"/>
<path d="M26.5562 47.4338C26.3857 47.1179 26.0178 46.9457 25.6656 47.0153C25.3314 47.0815 25.0679 47.3558 25.0112 47.6908C24.9476 48.0663 25.1593 48.4471 25.5111 48.5924C25.8492 48.7351 26.2574 48.6253 26.4816 48.3361C26.681 48.0787 26.7109 47.7203 26.5562 47.4338Z" fill="#3D0606" fill-opacity="0.6"/>
<path d="M20.5562 50.4338C20.3857 50.1179 20.0178 49.9457 19.6656 50.0153C19.3314 50.0815 19.0679 50.3558 19.0112 50.6908C18.9476 51.0663 19.1593 51.4471 19.5111 51.5924C19.8492 51.7351 20.2574 51.6253 20.4816 51.3361C20.681 51.0787 20.7109 50.7203 20.5562 50.4338Z" fill="#3D0606" fill-opacity="0.6"/>
<path d="M24.5562 50.4338C24.3857 50.1179 24.0178 49.9457 23.6656 50.0153C23.3314 50.0815 23.0679 50.3558 23.0112 50.6908C22.9476 51.0663 23.1593 51.4471 23.5111 51.5924C23.8492 51.7351 24.2574 51.6253 24.4816 51.3361C24.681 51.0787 24.7109 50.7203 24.5562 50.4338Z" fill="#3D0606" fill-opacity="0.6"/>
<path d="M29.5562 50.4338C29.3857 50.1179 29.0178 49.9457 28.6656 50.0153C28.3314 50.0815 28.0679 50.3558 28.0112 50.6908C27.9476 51.0663 28.1593 51.4471 28.5111 51.5924C28.8492 51.7351 29.2574 51.6253 29.4816 51.3361C29.681 51.0787 29.7109 50.7203 29.5562 50.4338Z" fill="#3D0606" fill-opacity="0.6"/>
<path d="M30.5562 43.4338C30.3857 43.1179 30.0178 42.9457 29.6656 43.0153C29.3314 43.0815 29.0679 43.3558 29.0112 43.6908C28.9476 44.0663 29.1593 44.4471 29.5111 44.5924C29.8492 44.7351 30.2574 44.6253 30.4816 44.3361C30.681 44.0787 30.7109 43.7203 30.5562 43.4338Z" fill="#3D0606" fill-opacity="0.6"/>
<path d="M25.5562 39.4338C25.3857 39.1179 25.0178 38.9457 24.6656 39.0153C24.3314 39.0815 24.0679 39.3558 24.0112 39.6908C23.9476 40.0663 24.1593 40.4471 24.5111 40.5924C24.8492 40.7351 25.2574 40.6253 25.4816 40.3361C25.681 40.0787 25.7109 39.7203 25.5562 39.4338Z" fill="#3D0606" fill-opacity="0.6"/>
<path d="M33.5562 38.4338C33.3857 38.1179 33.0178 37.9457 32.6656 38.0153C32.3314 38.0815 32.0679 38.3558 32.0112 38.6908C31.9476 39.0663 32.1593 39.4471 32.5111 39.5924C32.8492 39.7351 33.2574 39.6253 33.4816 39.3361C33.681 39.0787 33.7109 38.7203 33.5562 38.4338Z" fill="#3D0606" fill-opacity="0.6"/>
<path d="M36.5562 41.4338C36.3857 41.1179 36.0178 40.9457 35.6656 41.0153C35.3314 41.0815 35.0679 41.3558 35.0112 41.6908C34.9476 42.0663 35.1593 42.4471 35.5111 42.5924C35.8492 42.7351 36.2574 42.6253 36.4816 42.3361C36.681 42.0787 36.7109 41.7203 36.5562 41.4338Z" fill="#3D0606" fill-opacity="0.6"/>
<path d="M35.5562 45.4338C35.3857 45.1179 35.0178 44.9457 34.6656 45.0153C34.3314 45.0815 34.0679 45.3558 34.0112 45.6908C33.9476 46.0663 34.1593 46.4471 34.5111 46.5924C34.8492 46.7351 35.2574 46.6253 35.4816 46.3361C35.681 46.0787 35.7109 45.7203 35.5562 45.4338Z" fill="#3D0606" fill-opacity="0.6"/>
<path d="M34.5562 49.4338C34.3857 49.1179 34.0178 48.9457 33.6656 49.0153C33.3314 49.0815 33.0679 49.3558 33.0112 49.6908C32.9476 50.0663 33.1593 50.4471 33.5111 50.5924C33.8492 50.7351 34.2574 50.6253 34.4816 50.3361C34.681 50.0787 34.7109 49.7203 34.5562 49.4338Z" fill="#3D0606" fill-opacity="0.6"/>
<path d="M39.5562 47.4338C39.3857 47.1179 39.0178 46.9457 38.6656 47.0153C38.3314 47.0815 38.0679 47.3558 38.0112 47.6908C37.9476 48.0663 38.1593 48.4471 38.5111 48.5924C38.8492 48.7351 39.2574 48.6253 39.4816 48.3361C39.681 48.0787 39.7109 47.7203 39.5562 47.4338Z" fill="#3D0606" fill-opacity="0.6"/>
<path d="M39.5562 50.4338C39.3857 50.1179 39.0178 49.9457 38.6656 50.0153C38.3314 50.0815 38.0679 50.3558 38.0112 50.6908C37.9476 51.0663 38.1593 51.4471 38.5111 51.5924C38.8492 51.7351 39.2574 51.6253 39.4816 51.3361C39.681 51.0787 39.7109 50.7203 39.5562 50.4338Z" fill="#3D0606" fill-opacity="0.6"/>
<path d="M31.5562 47.4338C31.3857 47.1179 31.0178 46.9457 30.6656 47.0153C30.3314 47.0815 30.0679 47.3558 30.0112 47.6908C29.9476 48.0663 30.1593 48.4471 30.5111 48.5924C30.8492 48.7351 31.2574 48.6253 31.4816 48.3361C31.681 48.0787 31.7109 47.7203 31.5562 47.4338Z" fill="#3D0606" fill-opacity="0.6"/>
<path d="M17.5562 46.4338C17.3857 46.1179 17.0178 45.9457 16.6656 46.0153C16.3314 46.0815 16.0679 46.3558 16.0112 46.6908C15.9476 47.0663 16.1593 47.4471 16.5111 47.5924C16.8492 47.7351 17.2574 47.6253 17.4816 47.3361C17.681 47.0787 17.7109 46.7203 17.5562 46.4338Z" fill="#3D0606" fill-opacity="0.6"/>
<path d="M12.5562 42.4338C12.3857 42.1179 12.0178 41.9457 11.6656 42.0153C11.3314 42.0815 11.0679 42.3558 11.0112 42.6908C10.9476 43.0663 11.1593 43.4471 11.5111 43.5924C11.8492 43.7351 12.2574 43.6253 12.4816 43.3361C12.681 43.0787 12.7109 42.7203 12.5562 42.4338Z" fill="#3D0606" fill-opacity="0.6"/>
<path d="M17.5562 42.4338C17.3857 42.1179 17.0178 41.9457 16.6656 42.0153C16.3314 42.0815 16.0679 42.3558 16.0112 42.6908C15.9476 43.0663 16.1593 43.4471 16.5111 43.5924C16.8492 43.7351 17.2574 43.6253 17.4816 43.3361C17.681 43.0787 17.7109 42.7203 17.5562 42.4338Z" fill="#3D0606" fill-opacity="0.6"/>
<path d="M45.7065 5.80836C45.3832 6.02373 45.2501 6.45546 45.4017 6.81452C45.533 7.12586 45.8464 7.33404 46.1863 7.32543C46.5325 7.31661 46.8436 7.08599 46.9524 6.75732C47.1948 6.02537 46.3483 5.38089 45.7065 5.80836Z" fill="#3D0606" fill-opacity="0.6"/>
<path d="M46.7525 9.58675C46.5304 9.36376 46.1838 9.28598 45.8878 9.39295C45.508 9.53021 45.2728 9.93612 45.3542 10.3345C45.5074 11.0574 46.493 11.2366 46.8767 10.5977C47.0699 10.2762 47.0169 9.85213 46.7525 9.58675Z" fill="#3D0606" fill-opacity="0.6"/>
<path d="M47.5162 13.2181C47.2025 13.4868 47.1339 13.9638 47.3656 14.3074C47.773 14.9256 48.7659 14.7017 48.8736 13.9697C48.9828 13.2282 48.0857 12.7306 47.5162 13.2181Z" fill="#3D0606" fill-opacity="0.6"/>
<path d="M29.6022 22.6428C29.4615 22.3097 29.1177 22.1001 28.7563 22.1351C28.4111 22.1685 28.1196 22.4227 28.0342 22.7579C27.852 23.4729 28.6653 24.0486 29.2837 23.6566C29.6163 23.4456 29.7558 23.0066 29.6022 22.6428Z" fill="#3D0606" fill-opacity="0.6"/>
<path d="M41.7996 10.7011C41.3969 10.6805 41.0222 10.9695 40.9474 11.3672C40.7923 12.1144 41.6994 12.6501 42.2844 12.1686C42.8569 11.6972 42.5393 10.7389 41.7996 10.7011Z" fill="#3D0606" fill-opacity="0.6"/>
<path d="M41.3412 6.68408C41.0245 6.95327 40.9631 7.42933 41.1904 7.77433C41.3925 8.08143 41.7914 8.21499 42.139 8.10027C42.4516 7.997 42.6774 7.71049 42.7051 7.38259C42.7659 6.66251 41.8928 6.21499 41.3412 6.68408Z" fill="#3D0606" fill-opacity="0.6"/>
<path d="M42.7767 39.137C42.4534 39.3523 42.3203 39.7841 42.4719 40.1431C42.6032 40.4545 42.9166 40.6627 43.2565 40.654C43.6027 40.6452 43.9138 40.4146 44.0226 40.0859C44.265 39.354 43.4185 38.7095 42.7767 39.137Z" fill="#3D0606" fill-opacity="0.6"/>
<path d="M45.3673 31.137C45.044 31.3523 44.9108 31.7841 45.0625 32.1431C45.1937 32.4545 45.5072 32.6627 45.847 32.654C46.1933 32.6452 46.5044 32.4146 46.6132 32.0859C46.8556 31.354 46.009 30.7095 45.3673 31.137Z" fill="#3D0606" fill-opacity="0.6"/>
<path d="M44.3673 27.137C44.044 27.3523 43.9108 27.7841 44.0625 28.1431C44.1937 28.4545 44.5072 28.6627 44.847 28.654C45.1933 28.6452 45.5044 28.4146 45.6132 28.0859C45.8556 27.354 45.009 26.7095 44.3673 27.137Z" fill="#3D0606" fill-opacity="0.6"/>
<path d="M45.3673 38.137C45.044 38.3523 44.9108 38.7841 45.0625 39.1431C45.1937 39.4545 45.5072 39.6627 45.847 39.654C46.1933 39.6452 46.5044 39.4146 46.6132 39.0859C46.8556 38.354 46.009 37.7095 45.3673 38.137Z" fill="#3D0606" fill-opacity="0.6"/>
<path d="M38.3673 36.137C38.044 36.3523 37.9108 36.7841 38.0625 37.1431C38.1937 37.4545 38.5072 37.6627 38.847 37.654C39.1933 37.6452 39.5044 37.4146 39.6132 37.0859C39.8556 36.354 39.009 35.7095 38.3673 36.137Z" fill="#3D0606" fill-opacity="0.6"/>
<path d="M43.8227 42.9154C43.6006 42.6924 43.254 42.6146 42.958 42.7216C42.5782 42.8588 42.343 43.2647 42.4244 43.6631C42.5776 44.386 43.5632 44.5652 43.9469 43.9263C44.1401 43.6048 44.0871 43.1807 43.8227 42.9154Z" fill="#3D0606" fill-opacity="0.6"/>
<path d="M44.5864 46.5467C44.2727 46.8155 44.2041 47.2924 44.4358 47.636C44.8432 48.2542 45.8361 48.0303 45.9438 47.2983C46.0529 46.5568 45.1558 46.0592 44.5864 46.5467Z" fill="#3D0606" fill-opacity="0.6"/>
<path d="M38.8698 44.0297C38.4671 44.0091 38.0924 44.2981 38.0176 44.6958C37.8625 45.4431 38.7696 45.9787 39.3545 45.4972C39.9271 45.0258 39.6095 44.0675 38.8698 44.0297Z" fill="#3D0606" fill-opacity="0.6"/>
<path d="M38.4114 40.0127C38.0947 40.2819 38.0333 40.7579 38.2606 41.1029C38.4627 41.41 38.8616 41.5436 39.2091 41.4289C39.5218 41.3256 39.7476 41.0391 39.7753 40.7112C39.8361 39.9911 38.9629 39.5436 38.4114 40.0127Z" fill="#3D0606" fill-opacity="0.6"/>
<path d="M12.2464 47.1193C12.0703 46.8613 11.7577 46.7163 11.4466 46.7587C11.0761 46.809 10.7827 47.1088 10.7357 47.4784C10.6432 48.2057 11.5148 48.6799 12.079 48.2226C12.4074 47.9563 12.4785 47.4717 12.2464 47.1193Z" fill="#3D0606" fill-opacity="0.6"/>
<path d="M7.56426 9.44874C7.39802 9.12519 7.02294 8.94381 6.66585 9.0156C6.29807 9.08445 6.01832 9.41529 6.00089 9.78677C5.98368 10.1544 6.21811 10.4985 6.56813 10.6134C7.25803 10.8397 7.89597 10.0948 7.56426 9.44874Z" fill="#3D0606" fill-opacity="0.6"/>
<path d="M7.96771 13.3081C7.61769 13.5182 7.47672 13.9579 7.62771 14.3347C7.7629 14.6622 8.10758 14.8746 8.46174 14.8442C8.7891 14.8163 9.0768 14.5899 9.1792 14.2779C9.41299 13.5658 8.61251 12.9209 7.96771 13.3081Z" fill="#3D0606" fill-opacity="0.6"/>
<path d="M10.4001 16.1163C10.0501 16.3265 9.90909 16.7661 10.0601 17.143C10.1953 17.4704 10.54 17.6828 10.8941 17.6525C11.2215 17.6246 11.5092 17.3981 11.6116 17.0861C11.8454 16.3741 11.0449 15.7292 10.4001 16.1163Z" fill="#3D0606" fill-opacity="0.6"/>
<path d="M15.4001 16.1163C15.0501 16.3265 14.9091 16.7661 15.0601 17.143C15.1953 17.4704 15.54 17.6828 15.8941 17.6525C16.2215 17.6246 16.5092 17.3981 16.6116 17.0861C16.8454 16.3741 16.0449 15.7292 15.4001 16.1163Z" fill="#3D0606" fill-opacity="0.6"/>
<path d="M13.4001 19.1163C13.0501 19.3265 12.9091 19.7661 13.0601 20.143C13.1953 20.4704 13.54 20.6828 13.8941 20.6525C14.2215 20.6246 14.5092 20.3981 14.6116 20.0861C14.8454 19.3741 14.0449 18.7292 13.4001 19.1163Z" fill="#3D0606" fill-opacity="0.6"/>
<path d="M17.4001 19.1163C17.0501 19.3265 16.9091 19.7661 17.0601 20.143C17.1953 20.4704 17.54 20.6828 17.8941 20.6525C18.2215 20.6246 18.5092 20.3981 18.6116 20.0861C18.8454 19.3741 18.0449 18.7292 17.4001 19.1163Z" fill="#3D0606" fill-opacity="0.6"/>
<path d="M21.4001 18.1163C21.0501 18.3265 20.9091 18.7661 21.0601 19.143C21.1953 19.4704 21.54 19.6828 21.8941 19.6525C22.2215 19.6246 22.5092 19.3981 22.6116 19.0861C22.8454 18.3741 22.0449 17.7292 21.4001 18.1163Z" fill="#3D0606" fill-opacity="0.6"/>
<path d="M20.4001 21.1163C20.0501 21.3265 19.9091 21.7661 20.0601 22.143C20.1953 22.4704 20.54 22.6828 20.8941 22.6525C21.2215 22.6246 21.5092 22.3981 21.6116 22.0861C21.8454 21.3741 21.0449 20.7292 20.4001 21.1163Z" fill="#3D0606" fill-opacity="0.6"/>
<path d="M24.4001 21.1163C24.0501 21.3265 23.9091 21.7661 24.0601 22.143C24.1953 22.4704 24.54 22.6828 24.8941 22.6525C25.2215 22.6246 25.5092 22.3981 25.6116 22.0861C25.8454 21.3741 25.0449 20.7292 24.4001 21.1163Z" fill="#3D0606" fill-opacity="0.6"/>
<path d="M21.4001 25.1163C21.0501 25.3265 20.9091 25.7661 21.0601 26.143C21.1953 26.4704 21.54 26.6828 21.8941 26.6525C22.2215 26.6246 22.5092 26.3981 22.6116 26.0861C22.8454 25.3741 22.0449 24.7292 21.4001 25.1163Z" fill="#3D0606" fill-opacity="0.6"/>
<path d="M17.4001 23.1163C17.0501 23.3265 16.9091 23.7661 17.0601 24.143C17.1953 24.4704 17.54 24.6828 17.8941 24.6525C18.2215 24.6246 18.5092 24.3981 18.6116 24.0861C18.8454 23.3741 18.0449 22.7292 17.4001 23.1163Z" fill="#3D0606" fill-opacity="0.6"/>
<path d="M19.4001 14.1163C19.0501 14.3265 18.9091 14.7661 19.0601 15.143C19.1953 15.4704 19.54 15.6828 19.8941 15.6525C20.2215 15.6246 20.5092 15.3981 20.6116 15.0861C20.8454 14.3741 20.0449 13.7292 19.4001 14.1163Z" fill="#3D0606" fill-opacity="0.6"/>
<path d="M25.4001 16.1163C25.0501 16.3265 24.9091 16.7661 25.0601 17.143C25.1953 17.4704 25.54 17.6828 25.8941 17.6525C26.2215 17.6246 26.5092 17.3981 26.6116 17.0861C26.8454 16.3741 26.0449 15.7292 25.4001 16.1163Z" fill="#3D0606" fill-opacity="0.6"/>
<path d="M29.4001 18.1163C29.0501 18.3265 28.9091 18.7661 29.0601 19.143C29.1953 19.4704 29.54 19.6828 29.8941 19.6525C30.2215 19.6246 30.5092 19.3981 30.6116 19.0861C30.8454 18.3741 30.0449 17.7292 29.4001 18.1163Z" fill="#3D0606" fill-opacity="0.6"/>
<path d="M23.4001 12.1163C23.0501 12.3265 22.9091 12.7661 23.0601 13.143C23.1953 13.4704 23.54 13.6828 23.8941 13.6525C24.2215 13.6246 24.5092 13.3981 24.6116 13.0861C24.8454 12.3741 24.0449 11.7292 23.4001 12.1163Z" fill="#3D0606" fill-opacity="0.6"/>
<path d="M16.4001 11.1163C16.0501 11.3265 15.9091 11.7661 16.0601 12.143C16.1953 12.4704 16.54 12.6828 16.8941 12.6525C17.2215 12.6246 17.5092 12.3981 17.6116 12.0861C17.8454 11.3741 17.0449 10.7292 16.4001 11.1163Z" fill="#3D0606" fill-opacity="0.6"/>
<path d="M19.4001 8.11632C19.0501 8.32646 18.9091 8.76614 19.0601 9.14295C19.1953 9.47042 19.54 9.68285 19.8941 9.65245C20.2215 9.62457 20.5092 9.39808 20.6116 9.08609C20.8454 8.37407 20.0449 7.72915 19.4001 8.11632Z" fill="#3D0606" fill-opacity="0.6"/>
<path d="M16.4001 28.1163C16.0501 28.3265 15.9091 28.7661 16.0601 29.143C16.1953 29.4704 16.54 29.6828 16.8941 29.6525C17.2215 29.6246 17.5092 29.3981 17.6116 29.0861C17.8454 28.3741 17.0449 27.7292 16.4001 28.1163Z" fill="#3D0606" fill-opacity="0.6"/>
<path d="M14.4001 31.1163C14.0501 31.3265 13.9091 31.7661 14.0601 32.143C14.1953 32.4704 14.54 32.6828 14.8941 32.6525C15.2215 32.6246 15.5092 32.3981 15.6116 32.0861C15.8454 31.3741 15.0449 30.7292 14.4001 31.1163Z" fill="#3D0606" fill-opacity="0.6"/>
<path d="M10.4001 32.1163C10.0501 32.3265 9.90909 32.7661 10.0601 33.143C10.1953 33.4704 10.54 33.6828 10.8941 33.6525C11.2215 33.6246 11.5092 33.3981 11.6116 33.0861C11.8454 32.3741 11.0449 31.7292 10.4001 32.1163Z" fill="#3D0606" fill-opacity="0.6"/>
<path d="M13.4001 38.1163C13.0501 38.3265 12.9091 38.7661 13.0601 39.143C13.1953 39.4704 13.54 39.6828 13.8941 39.6525C14.2215 39.6246 14.5092 39.3981 14.6116 39.0861C14.8454 38.3741 14.0449 37.7292 13.4001 38.1163Z" fill="#3D0606" fill-opacity="0.6"/>
<path d="M9.40008 36.1163C9.05006 36.3265 8.90909 36.7661 9.06008 37.143C9.19527 37.4704 9.53996 37.6828 9.89411 37.6525C10.2215 37.6246 10.5092 37.3981 10.6116 37.0861C10.8454 36.3741 10.0449 35.7292 9.40008 36.1163Z" fill="#3D0606" fill-opacity="0.6"/>
<path d="M7.40008 40.1163C7.05006 40.3265 6.90909 40.7661 7.06008 41.143C7.19527 41.4704 7.53996 41.6828 7.89411 41.6525C8.22147 41.6246 8.50918 41.3981 8.61158 41.0861C8.84536 40.3741 8.04488 39.7292 7.40008 40.1163Z" fill="#3D0606" fill-opacity="0.6"/>
<path d="M18.4001 31.1163C18.0501 31.3265 17.9091 31.7661 18.0601 32.143C18.1953 32.4704 18.54 32.6828 18.8941 32.6525C19.2215 32.6246 19.5092 32.3981 19.6116 32.0861C19.8454 31.3741 19.0449 30.7292 18.4001 31.1163Z" fill="#3D0606" fill-opacity="0.6"/>
<path d="M16.4001 34.1163C16.0501 34.3265 15.9091 34.7661 16.0601 35.143C16.1953 35.4704 16.54 35.6828 16.8941 35.6525C17.2215 35.6246 17.5092 35.3981 17.6116 35.0861C17.8454 34.3741 17.0449 33.7292 16.4001 34.1163Z" fill="#3D0606" fill-opacity="0.6"/>
<path d="M20.4001 34.1163C20.0501 34.3265 19.9091 34.7661 20.0601 35.143C20.1953 35.4704 20.54 35.6828 20.8941 35.6525C21.2215 35.6246 21.5092 35.3981 21.6116 35.0861C21.8454 34.3741 21.0449 33.7292 20.4001 34.1163Z" fill="#3D0606" fill-opacity="0.6"/>
<path d="M21.4001 29.1163C21.0501 29.3265 20.9091 29.7661 21.0601 30.143C21.1953 30.4704 21.54 30.6828 21.8941 30.6525C22.2215 30.6246 22.5092 30.3981 22.6116 30.0861C22.8454 29.3741 22.0449 28.7292 21.4001 29.1163Z" fill="#3D0606" fill-opacity="0.6"/>
<path d="M25.4001 29.1163C25.0501 29.3265 24.9091 29.7661 25.0601 30.143C25.1953 30.4704 25.54 30.6828 25.8941 30.6525C26.2215 30.6246 26.5092 30.3981 26.6116 30.0861C26.8454 29.3741 26.0449 28.7292 25.4001 29.1163Z" fill="#3D0606" fill-opacity="0.6"/>
<path d="M39.4715 32.4442C39.2045 32.1177 38.7216 32.0502 38.3713 32.2811C37.7507 32.6897 37.9781 33.6815 38.7096 33.7892C39.4452 33.8976 39.9402 33.0176 39.4715 32.4442Z" fill="#3D0606" fill-opacity="0.6"/>
<path d="M42.4599 28.2995C42.1929 27.973 41.71 27.9055 41.3597 28.1364C40.7391 28.5449 40.9665 29.5368 41.698 29.6444C42.4336 29.7528 42.9287 28.8728 42.4599 28.2995Z" fill="#3D0606" fill-opacity="0.6"/>
<path d="M42.4599 34.2995C42.1929 33.973 41.71 33.9055 41.3597 34.1364C40.7391 34.5449 40.9665 35.5368 41.698 35.6444C42.4336 35.7528 42.9287 34.8728 42.4599 34.2995Z" fill="#3D0606" fill-opacity="0.6"/>
<path d="M35.584 31.5819C35.4135 31.266 35.0457 31.0938 34.6935 31.1634C34.3592 31.2296 34.0957 31.5039 34.0391 31.8389C33.9755 32.2144 34.1871 32.5952 34.5389 32.7405C34.877 32.8832 35.2852 32.7734 35.5094 32.4842C35.7089 32.2268 35.7387 31.8684 35.584 31.5819Z" fill="#3D0606" fill-opacity="0.6"/>
<path d="M38.6022 28.5116C38.4615 28.1784 38.1177 27.9688 37.7563 28.0038C37.4111 28.0372 37.1196 28.2914 37.0342 28.6266C36.852 29.3417 37.6653 29.9173 38.2837 29.5253C38.6163 29.3143 38.7558 28.8753 38.6022 28.5116Z" fill="#3D0606" fill-opacity="0.6"/>
<path d="M30.4001 30.985C30.0501 31.1952 29.9091 31.6348 30.0601 32.0117C30.1953 32.3391 30.54 32.5516 30.8941 32.5212C31.2215 32.4933 31.5092 32.2668 31.6116 31.9548C31.8454 31.2428 31.0449 30.5979 30.4001 30.985Z" fill="#3D0606" fill-opacity="0.6"/>
<path d="M27.4001 36.985C27.0501 37.1952 26.9091 37.6348 27.0601 38.0117C27.1953 38.3391 27.54 38.5516 27.8941 38.5212C28.2215 38.4933 28.5092 38.2668 28.6116 37.9548C28.8454 37.2428 28.0449 36.5979 27.4001 36.985Z" fill="#3D0606" fill-opacity="0.6"/>
<path d="M30.4001 34.985C30.0501 35.1952 29.9091 35.6348 30.0601 36.0117C30.1953 36.3391 30.54 36.5516 30.8941 36.5212C31.2215 36.4933 31.5092 36.2668 31.6116 35.9548C31.8454 35.2428 31.0449 34.5979 30.4001 34.985Z" fill="#3D0606" fill-opacity="0.6"/>
<path d="M34.4001 34.985C34.0501 35.1952 33.9091 35.6348 34.0601 36.0117C34.1953 36.3391 34.54 36.5516 34.8941 36.5212C35.2215 36.4933 35.5092 36.2668 35.6116 35.9548C35.8454 35.2428 35.0449 34.5979 34.4001 34.985Z" fill="#3D0606" fill-opacity="0.6"/>
<path d="M45.4715 21.4442C45.2045 21.1177 44.7216 21.0502 44.3713 21.2811C43.7507 21.6897 43.9781 22.6815 44.7096 22.7892C45.4452 22.8976 45.9402 22.0176 45.4715 21.4442Z" fill="#3D0606" fill-opacity="0.6"/>
<path d="M48.4599 18.2995C48.1929 17.973 47.71 17.9055 47.3597 18.1364C46.7391 18.5449 46.9665 19.5368 47.698 19.6444C48.4336 19.7528 48.9287 18.8728 48.4599 18.2995Z" fill="#3D0606" fill-opacity="0.6"/>
<path d="M41.584 20.5819C41.4135 20.266 41.0457 20.0938 40.6935 20.1634C40.3592 20.2296 40.0957 20.5039 40.0391 20.8389C39.9755 21.2144 40.1871 21.5952 40.5389 21.7405C40.877 21.8832 41.2852 21.7734 41.5094 21.4842C41.7089 21.2268 41.7387 20.8684 41.584 20.5819Z" fill="#3D0606" fill-opacity="0.6"/>
<path d="M37.5562 16.4338C37.3857 16.1179 37.0178 15.9457 36.6656 16.0153C36.3314 16.0815 36.0679 16.3558 36.0112 16.6908C35.9476 17.0663 36.1593 17.4471 36.5111 17.5924C36.8492 17.7351 37.2574 17.6253 37.4816 17.3361C37.681 17.0787 37.7109 16.7203 37.5562 16.4338Z" fill="#3D0606" fill-opacity="0.6"/>
<path d="M40.5562 15.4338C40.3857 15.1179 40.0178 14.9457 39.6656 15.0153C39.3314 15.0815 39.0679 15.3558 39.0112 15.6908C38.9476 16.0663 39.1593 16.4471 39.5111 16.5924C39.8492 16.7351 40.2574 16.6253 40.4816 16.3361C40.681 16.0787 40.7109 15.7203 40.5562 15.4338Z" fill="#3D0606" fill-opacity="0.6"/>
<path d="M44.6022 17.5116C44.4615 17.1784 44.1177 16.9688 43.7563 17.0038C43.4111 17.0372 43.1196 17.2914 43.0342 17.6266C42.852 18.3417 43.6653 18.9173 44.2837 18.5253C44.6163 18.3143 44.7558 17.8753 44.6022 17.5116Z" fill="#3D0606" fill-opacity="0.6"/>
<path d="M45.594 14.5116C45.4533 14.1784 45.1095 13.9688 44.7481 14.0038C44.4029 14.0372 44.1114 14.2914 44.026 14.6266C43.8438 15.3417 44.6571 15.9173 45.2755 15.5253C45.6081 15.3143 45.7477 14.8753 45.594 14.5116Z" fill="#3D0606" fill-opacity="0.6"/>
<path d="M36.4001 19.985C36.0501 20.1952 35.9091 20.6348 36.0601 21.0117C36.1953 21.3391 36.54 21.5516 36.8941 21.5212C37.2215 21.4933 37.5092 21.2668 37.6116 20.9548C37.8454 20.2428 37.0449 19.5979 36.4001 19.985Z" fill="#3D0606" fill-opacity="0.6"/>
<path d="M32.4001 21.1163C32.0501 21.3265 31.9091 21.7661 32.0601 22.143C32.1953 22.4704 32.54 22.6828 32.8941 22.6525C33.2215 22.6246 33.5092 22.3981 33.6116 22.0861C33.8454 21.3741 33.0449 20.7292 32.4001 21.1163Z" fill="#3D0606" fill-opacity="0.6"/>
<path d="M32.4001 14.1163C32.0501 14.3265 31.9091 14.7661 32.0601 15.143C32.1953 15.4704 32.54 15.6828 32.8941 15.6525C33.2215 15.6246 33.5092 15.3981 33.6116 15.0861C33.8454 14.3741 33.0449 13.7292 32.4001 14.1163Z" fill="#3D0606" fill-opacity="0.6"/>
<path d="M33.4001 25.985C33.0501 26.1952 32.9091 26.6348 33.0601 27.0117C33.1953 27.3391 33.54 27.5516 33.8941 27.5212C34.2215 27.4933 34.5092 27.2668 34.6116 26.9548C34.8454 26.2428 34.0449 25.5979 33.4001 25.985Z" fill="#3D0606" fill-opacity="0.6"/>
<path d="M36.4001 23.985C36.0501 24.1952 35.9091 24.6348 36.0601 25.0117C36.1953 25.3391 36.54 25.5516 36.8941 25.5212C37.2215 25.4933 37.5092 25.2668 37.6116 24.9548C37.8454 24.2428 37.0449 23.5979 36.4001 23.985Z" fill="#3D0606" fill-opacity="0.6"/>
<path d="M40.4001 23.985C40.0501 24.1952 39.9091 24.6348 40.0601 25.0117C40.1953 25.3391 40.54 25.5516 40.8941 25.5212C41.2215 25.4933 41.5092 25.2668 41.6116 24.9548C41.8454 24.2428 41.0449 23.5979 40.4001 23.985Z" fill="#3D0606" fill-opacity="0.6"/>
<path d="M39.4715 7.44423C39.2045 7.11774 38.7216 7.0502 38.3713 7.28114C37.7507 7.68966 37.9781 8.68154 38.7096 8.78917C39.4452 8.89757 39.9402 8.01757 39.4715 7.44423Z" fill="#3D0606" fill-opacity="0.6"/>
<path d="M35.584 6.58187C35.4135 6.26595 35.0457 6.09383 34.6935 6.16344C34.3592 6.22957 34.0957 6.50387 34.0391 6.83886C33.9755 7.21437 34.1871 7.59521 34.5389 7.74054C34.877 7.88325 35.2852 7.77343 35.5094 7.4842C35.7089 7.22678 35.7387 6.86838 35.584 6.58187Z" fill="#3D0606" fill-opacity="0.6"/>
<path d="M38.6022 3.51155C38.4615 3.17842 38.1177 2.96883 37.7563 3.0038C37.4111 3.03724 37.1196 3.29139 37.0342 3.62659C36.852 4.34166 37.6653 4.91729 38.2837 4.52533C38.6163 4.31432 38.7558 3.8753 38.6022 3.51155Z" fill="#3D0606" fill-opacity="0.6"/>
<path d="M30.4001 5.98503C30.0501 6.19517 29.9091 6.63485 30.0601 7.01167C30.1953 7.33913 30.54 7.55156 30.8941 7.52117C31.2215 7.49328 31.5092 7.2668 31.6116 6.9548C31.8454 6.24278 31.0449 5.59787 30.4001 5.98503Z" fill="#3D0606" fill-opacity="0.6"/>
<path d="M27.4001 11.985C27.0501 12.1952 26.9091 12.6348 27.0601 13.0117C27.1953 13.3391 27.54 13.5516 27.8941 13.5212C28.2215 13.4933 28.5092 13.2668 28.6116 12.9548C28.8454 12.2428 28.0449 11.5979 27.4001 11.985Z" fill="#3D0606" fill-opacity="0.6"/>
<path d="M30.4001 9.98503C30.0501 10.1952 29.9091 10.6348 30.0601 11.0117C30.1953 11.3391 30.54 11.5516 30.8941 11.5212C31.2215 11.4933 31.5092 11.2668 31.6116 10.9548C31.8454 10.2428 31.0449 9.59787 30.4001 9.98503Z" fill="#3D0606" fill-opacity="0.6"/>
<path d="M25.4001 7.11632C25.0501 7.32646 24.9091 7.76614 25.0601 8.14295C25.1953 8.47042 25.54 8.68285 25.8941 8.65245C26.2215 8.62457 26.5092 8.39808 26.6116 8.08609C26.8454 7.37407 26.0449 6.72915 25.4001 7.11632Z" fill="#3D0606" fill-opacity="0.6"/>
<path d="M21.4001 5.11632C21.0501 5.32646 20.9091 5.76614 21.0601 6.14295C21.1953 6.47042 21.54 6.68285 21.8941 6.65245C22.2215 6.62457 22.5092 6.39808 22.6116 6.08609C22.8454 5.37407 22.0449 4.72915 21.4001 5.11632Z" fill="#3D0606" fill-opacity="0.6"/>
<path d="M25.4001 4.11632C25.0501 4.32646 24.9091 4.76614 25.0601 5.14295C25.1953 5.47042 25.54 5.68285 25.8941 5.65245C26.2215 5.62457 26.5092 5.39808 26.6116 5.08609C26.8454 4.37407 26.0449 3.72915 25.4001 4.11632Z" fill="#3D0606" fill-opacity="0.6"/>
<path d="M34.4001 9.98503C34.0501 10.1952 33.9091 10.6348 34.0601 11.0117C34.1953 11.3391 34.54 11.5516 34.8941 11.5212C35.2215 11.4933 35.5092 11.2668 35.6116 10.9548C35.8454 10.2428 35.0449 9.59787 34.4001 9.98503Z" fill="#3D0606" fill-opacity="0.6"/>
<path d="M37.4001 12.1163C37.0501 12.3265 36.9091 12.7661 37.0601 13.143C37.1953 13.4704 37.54 13.6828 37.8941 13.6525C38.2215 13.6246 38.5092 13.3981 38.6116 13.0861C38.8454 12.3741 38.0449 11.7292 37.4001 12.1163Z" fill="#3D0606" fill-opacity="0.6"/>
<path d="M13.9447 25.0951C13.6037 24.8468 13.1194 24.9038 12.8391 25.2159C12.3421 25.7682 12.8132 26.6702 13.5482 26.5891C14.2873 26.5077 14.5434 25.531 13.9447 25.0951Z" fill="#3D0606" fill-opacity="0.6"/>
<path d="M9.96554 25.2452C9.72061 24.9828 9.32113 24.9094 8.99804 25.0659C8.69146 25.2145 8.50599 25.5466 8.53601 25.885C8.56955 26.2644 8.87076 26.5792 9.24786 26.6308C9.61112 26.6832 9.97819 26.4736 10.1218 26.137C10.2496 25.8375 10.1877 25.4832 9.96554 25.2452Z" fill="#3D0606" fill-opacity="0.6"/>
<path d="M12.1079 21.5107C11.8874 21.224 11.5017 21.1083 11.161 21.2337C10.8355 21.3534 10.6178 21.6731 10.6201 22.019C10.625 22.7569 11.5574 23.1079 12.0565 22.5721C12.3248 22.2837 12.3486 21.8237 12.1079 21.5107Z" fill="#3D0606" fill-opacity="0.6"/>
<path d="M7.41649 20.4298C7.1311 20.7218 7.10606 21.1828 7.34755 21.5091C7.56125 21.7917 7.94849 21.9099 8.28341 21.7908C8.59304 21.6809 8.81401 21.389 8.83407 21.0612C8.87994 20.3132 7.94224 19.892 7.41649 20.4298Z" fill="#3D0606" fill-opacity="0.6"/>
<path d="M4.41649 15.4298C4.1311 15.7218 4.10606 16.1828 4.34755 16.5091C4.56125 16.7917 4.94849 16.9099 5.28341 16.7908C5.59304 16.6809 5.81401 16.389 5.83407 16.0612C5.87994 15.3132 4.94224 14.892 4.41649 15.4298Z" fill="#3D0606" fill-opacity="0.6"/>
<path d="M6.41649 28.4298C6.1311 28.7218 6.10606 29.1828 6.34755 29.5091C6.56125 29.7917 6.94849 29.9099 7.28341 29.7908C7.59304 29.6809 7.81401 29.389 7.83407 29.0612C7.87994 28.3132 6.94224 27.892 6.41649 28.4298Z" fill="#3D0606" fill-opacity="0.6"/>
<path d="M9.68187 28.8372C9.39648 29.1292 9.37144 29.5902 9.61293 29.9165C9.82663 30.1991 10.2139 30.3173 10.5488 30.1982C10.8584 30.0883 11.0794 29.7964 11.0995 29.4686C11.1453 28.7206 10.2076 28.2994 9.68187 28.8372Z" fill="#3D0606" fill-opacity="0.6"/>
<path d="M24.4001 34.1163C24.0501 34.3265 23.9091 34.7661 24.0601 35.143C24.1953 35.4704 24.54 35.6828 24.8941 35.6525C25.2215 35.6246 25.5092 35.3981 25.6116 35.0861C25.8454 34.3741 25.0449 33.7292 24.4001 34.1163Z" fill="#3D0606" fill-opacity="0.6"/>
<path d="M18.4001 38.1163C18.0501 38.3265 17.9091 38.7661 18.0601 39.143C18.1953 39.4704 18.54 39.6828 18.8941 39.6525C19.2215 39.6246 19.5092 39.3981 19.6116 39.0861C19.8454 38.3741 19.0449 37.7292 18.4001 38.1163Z" fill="#3D0606" fill-opacity="0.6"/>
<path d="M13.6096 13.2534C13.2736 13.1117 12.8668 13.2185 12.6424 13.5056C12.4308 13.7762 12.4078 14.1576 12.5871 14.4509C12.7734 14.7556 13.148 14.9091 13.4945 14.8216C13.8149 14.7405 14.0645 14.4678 14.1121 14.14C14.1664 13.7665 13.9559 13.4 13.6096 13.2534Z" fill="#3D0606" fill-opacity="0.6"/>
<path d="M10.9876 10.9043C10.8115 10.6463 10.4989 10.5013 10.1878 10.5437C9.81733 10.594 9.52396 10.8938 9.47689 11.2634C9.38441 11.9907 10.256 12.4649 10.8202 12.0076C11.1487 11.7413 11.2197 11.2567 10.9876 10.9043Z" fill="#3D0606" fill-opacity="0.6"/>
<path d="M11.5643 7.44874C11.398 7.12519 11.0229 6.94381 10.6658 7.0156C10.2981 7.08445 10.0183 7.41529 10.0009 7.78677C9.98368 8.15443 10.2181 8.49846 10.5681 8.61339C11.258 8.83966 11.896 8.09485 11.5643 7.44874Z" fill="#3D0606" fill-opacity="0.6"/>
<path d="M16.1429 4.06229C15.8069 3.92056 15.4002 4.02743 15.1758 4.31448C14.9641 4.58508 14.9411 4.96647 15.1204 5.25984C15.3067 5.56454 15.6813 5.71804 16.0279 5.63045C16.3483 5.5494 16.5978 5.27673 16.6454 4.94893C16.6997 4.57539 16.4892 4.20892 16.1429 4.06229Z" fill="#3D0606" fill-opacity="0.6"/>
<path d="M14.9876 8.90426C14.8115 8.6463 14.4989 8.5013 14.1878 8.54368C13.8173 8.59401 13.524 8.8938 13.4769 9.26343C13.3844 9.9907 14.256 10.4649 14.8202 10.0076C15.1487 9.74134 15.2197 9.25667 14.9876 8.90426Z" fill="#3D0606" fill-opacity="0.6"/>
<path d="M42.3218 0H18.108C17.6506 0 17.2797 0.370934 17.2797 0.828364C17.2797 1.28579 17.6506 1.65673 18.108 1.65673H42.3217C47.5986 1.65673 51.8765 5.93461 51.8765 11.2116V16.8518C51.8765 18.2476 51.3461 19.604 50.354 20.5859C49.0253 21.9008 48.293 23.6559 48.293 25.5237V37.5818C48.293 38.0393 48.6639 38.4102 49.1213 38.4102C49.5788 38.4102 49.9497 38.0393 49.9497 37.5818V25.5443C49.9497 24.1485 50.4801 22.7921 51.4722 21.8102C52.8009 20.4954 53.5332 18.7402 53.5332 16.8724V11.2116C53.5332 5.01953 48.5137 0 42.3218 0Z" fill="#3D0606" fill-opacity="0.6"/>
<path d="M49.1214 40.6192C48.664 40.6192 48.2931 40.9902 48.2931 41.4476V50.1629C48.2931 52.3481 46.5216 54.1196 44.3363 54.1196H9.19708C7.0119 54.1196 5.24035 52.3482 5.24035 50.1629V25.5236C5.24035 23.6952 4.53639 21.9236 3.23404 20.6401C2.21721 19.638 1.65673 18.2982 1.65673 16.8723V11.2115C1.65673 5.93461 5.93461 1.65673 11.2115 1.65673H14.2421C14.6995 1.65673 15.0705 1.28579 15.0705 0.828364C15.0705 0.370934 14.6996 0 14.2422 0H11.2116C5.01964 0 0 5.01953 0 11.2116V16.8723C0 18.7007 0.703957 20.4724 2.00631 21.7558C3.02314 22.7579 3.58362 24.0977 3.58362 25.5236V50.1626C3.58362 53.2628 6.09682 55.7761 9.19708 55.7761H44.3364C47.4366 55.7761 49.9499 53.2629 49.9499 50.1626V41.4476C49.9498 40.9901 49.579 40.6192 49.1214 40.6192Z" fill="#3D0606" fill-opacity="0.6"/>
</svg>
