<svg width="60" height="60" viewBox="0 0 60 60" fill="none" xmlns="http://www.w3.org/2000/svg">
<path d="M17.3414 15.3465C18.774 13.5202 19.0242 11.2198 18.0655 8.69382C17.3808 6.88991 16.3087 5.59665 16.2634 5.54256C15.9121 5.12216 15.2862 5.0663 14.8658 5.41791C14.4454 5.76923 14.3898 6.39395 14.7399 6.81435C14.7881 6.87286 18.1881 11.0513 15.7798 14.1217C12.3119 18.5436 16.0094 24.3754 16.1684 24.6215C16.3583 24.9152 16.6773 25.0751 17.0028 25.0751C17.1874 25.0751 17.3741 25.0237 17.5405 24.9161C18.0003 24.6186 18.1326 24.0044 17.835 23.544C17.8045 23.497 14.7496 18.6506 17.3414 15.3465Z" fill="#BB6BD9"/>
<path d="M10.6816 15.3465C12.1142 13.5202 12.3644 11.2198 11.4057 8.69382C10.7207 6.88991 9.64854 5.59665 9.60327 5.54256C9.25225 5.12216 8.62605 5.0663 8.20565 5.41791C7.78584 5.76893 7.72969 6.39366 8.07983 6.81406C8.11452 6.8561 11.533 11.0451 9.11966 14.1217C5.65178 18.5436 9.34956 24.3754 9.50861 24.6215C9.69852 24.9152 10.0172 25.0751 10.3426 25.0751C10.5273 25.0751 10.714 25.0237 10.8806 24.9161C11.3407 24.6186 11.4727 24.0044 11.1752 23.544C11.1449 23.497 8.08982 18.6506 10.6816 15.3465Z" fill="#BB6BD9"/>
<path d="M52.3451 15.8063C53.7777 13.98 54.0279 11.6796 53.0692 9.15361C52.3842 7.3497 51.3123 6.05645 51.2671 6.00235C50.9158 5.58195 50.2901 5.52609 49.8694 5.8777C49.4496 6.22873 49.3935 6.85345 49.7436 7.27385C49.7786 7.31589 53.1968 11.5049 50.7838 14.5815C47.3153 19.0034 51.0131 24.8349 51.1724 25.0813C51.3623 25.375 51.681 25.5349 52.0064 25.5349C52.1911 25.5349 52.3778 25.4835 52.5442 25.3759C53.0042 25.0784 53.1362 24.4639 52.8384 24.0038C52.8082 23.9568 49.753 19.1104 52.3451 15.8063Z" fill="#BB6BD9"/>
<path d="M45.6851 15.8063C47.1177 13.98 47.3679 11.6796 46.4095 9.15361C45.7248 7.3497 44.6526 6.05645 44.6073 6.00235C44.256 5.58195 43.6304 5.52609 43.2097 5.8777C42.7899 6.22873 42.7338 6.85345 43.0839 7.27385C43.1189 7.31589 46.5371 11.5049 44.1237 14.5815C40.6553 19.0034 44.353 24.8349 44.5121 25.0813C44.702 25.375 45.0207 25.5349 45.3461 25.5349C45.5308 25.5349 45.7174 25.4835 45.8841 25.3759C46.3442 25.0784 46.4762 24.4639 46.1784 24.0038C46.1481 23.9568 43.093 19.1104 45.6851 15.8063Z" fill="#BB6BD9"/>
<path d="M56.7062 46.9834H54.6015C54.1073 34.6056 44.4142 24.5548 32.1876 23.4935V22.483C33.4291 21.7404 34.1999 20.4092 34.1999 18.9293C34.1999 16.6386 32.3357 14.7747 30.045 14.7747C30.03 14.7747 29.9703 14.7747 29.9553 14.7747C27.6643 14.7747 25.8004 16.6386 25.8004 18.9293C25.8004 20.4092 26.5715 21.7407 27.8124 22.483V23.4935C15.5861 24.5548 5.89269 34.6053 5.3985 46.9834H3.29384C1.47758 46.9834 0 48.461 0 50.277V51.5176C0 53.335 1.47758 54.8132 3.29355 54.8132H56.7065C58.5227 54.8132 60 53.335 60 51.5176V50.277C59.9997 48.461 58.5221 46.9834 56.7062 46.9834ZM27.7842 18.9293C27.7842 17.7328 28.7579 16.7591 29.9547 16.7591C29.97 16.7591 30.0294 16.7591 30.0444 16.7591C31.2412 16.7591 32.2149 17.7328 32.2149 18.9293C32.2149 19.8239 31.6722 20.6153 30.8323 20.9449C30.4524 21.0939 30.2029 21.4605 30.2029 21.8686V23.4006H29.7963V21.8686C29.7963 21.4605 29.5464 21.0942 29.1668 20.9449C28.3269 20.615 27.7842 19.8239 27.7842 18.9293ZM56.7062 52.8285H3.29325C2.57122 52.8285 1.98412 52.2402 1.98412 51.5173V50.2767C1.98412 49.5549 2.57151 48.9678 3.29325 48.9678H4.92459C4.93371 48.9681 4.94223 48.9693 4.95134 48.9693H40.5833C41.131 48.9693 41.5755 48.5251 41.5755 47.9771C41.5755 47.4294 41.131 46.9849 40.5833 46.9849H7.38557C7.90475 35.016 17.7798 25.4329 29.8633 25.3847H30.1361C42.2199 25.4329 52.0944 35.0157 52.6138 46.9849H47.001C46.453 46.9849 46.0088 47.4294 46.0088 47.9771C46.0088 48.5251 46.453 48.9693 47.001 48.9693L54.6632 48.9678H56.7059C57.4279 48.9678 58.015 49.5549 58.015 50.2767V51.5173C58.015 52.2402 57.4279 52.8285 56.7062 52.8285Z" fill="#BB6BD9"/>
</svg>
